<svg version="1.1" id="Layer_1" xmlns="http://www.w3.org/2000/svg" xmlns:xlink="http://www.w3.org/1999/xlink" x="0px" y="0px"
	 width="100%" viewBox="0 0 795 546" enable-background="new 0 0 795 546" xml:space="preserve">
<path fill="#FEFEFF" opacity="1.000000" stroke="none" 
	d="
M512.000000,547.000000 
	C341.333344,547.000000 171.166672,547.000000 1.000000,547.000000 
	C1.000000,365.000000 1.000000,183.000000 1.000000,1.000000 
	C266.000000,1.000000 531.000000,1.000000 796.000000,1.000000 
	C796.000000,183.000000 796.000000,365.000000 796.000000,547.000000 
	C701.500000,547.000000 607.000000,547.000000 512.000000,547.000000 
M585.024170,56.384327 
	C585.244690,56.394234 585.465271,56.404137 585.685791,56.414032 
	C585.444580,56.283798 585.203369,56.153568 584.992126,55.468410 
	C584.690002,55.285034 584.387817,55.101654 583.877686,54.278011 
	C570.487244,41.776237 556.115051,30.703415 538.881042,21.987722 
	C539.974121,26.325512 540.696533,29.192333 541.531677,32.506447 
	C519.363159,26.609095 490.141510,25.902113 478.489899,30.659332 
	C502.662842,34.415180 527.500305,36.779987 547.561707,55.639973 
	C546.474915,51.136578 545.633301,47.648918 544.785828,44.137085 
	C555.555664,43.222023 567.159973,46.656666 583.932312,55.900032 
	C584.303406,55.915527 584.674561,55.931023 585.024170,56.384327 
M475.933258,227.529877 
	C475.744263,227.504608 475.555267,227.479355 475.366302,227.454086 
	C475.367920,227.566757 475.338409,227.764206 475.376251,227.778107 
	C475.593170,227.857758 475.826050,227.893784 475.872070,228.673309 
	C482.588715,240.793259 489.305328,252.913193 496.021973,265.033142 
	C495.013611,255.158585 493.054657,245.773468 490.985352,236.412735 
	C490.803040,235.588074 490.055420,234.603592 489.304688,234.236237 
	C484.902252,232.081985 480.420807,230.089249 475.933258,227.529877 
M548.190491,185.275421 
	C548.319580,185.271866 548.448730,185.268326 548.577820,185.264771 
	C548.504822,185.156738 548.431885,185.048706 548.358887,184.940674 
	C548.153564,185.103500 547.948303,185.266327 548.304504,184.724014 
	C547.740417,182.543091 547.176270,180.362167 546.612183,178.181244 
	C546.956848,178.006302 547.301575,177.831360 547.646301,177.656418 
	C550.622437,182.610611 553.598633,187.564789 556.574829,192.518967 
	C556.951172,187.320450 556.612488,182.266907 555.995544,177.247528 
	C554.156128,162.280899 550.329590,160.593964 537.875549,169.151062 
	C537.250061,169.580826 536.736572,170.173523 535.746338,171.078278 
	C539.891113,175.994644 543.836792,180.674927 548.190491,185.275421 
M571.967163,246.677856 
	C572.204773,246.650101 572.442322,246.622360 572.679932,246.594635 
	C572.467285,246.383682 572.254639,246.172745 572.018372,245.231628 
	C569.040894,238.037003 566.063416,230.842392 562.989685,223.415253 
	C561.847473,225.627701 560.802002,227.652817 559.550537,230.076889 
	C547.359619,225.760345 535.330444,221.501053 522.370605,216.912247 
	C523.946533,218.893600 524.721741,220.220840 525.814941,221.189087 
	C539.199585,233.043808 554.630066,241.177383 571.967163,246.677856 
M511.084747,188.612274 
	C511.334167,188.618988 511.583618,188.625702 511.833038,188.632431 
	C511.688934,188.278046 511.544830,187.923660 511.225586,186.881058 
	C509.729156,183.829315 508.232697,180.777573 506.736237,177.725830 
	C507.154419,177.344406 507.572601,176.962997 507.990784,176.581589 
	C518.247253,184.581970 528.503723,192.582367 538.787415,200.603989 
	C535.162720,192.850494 531.036438,185.203583 524.244995,179.406937 
	C514.980225,171.499313 507.406677,162.404877 503.130188,150.844360 
	C502.971954,150.416672 503.004547,149.918381 502.948212,149.452988 
	C502.538635,149.689270 502.129028,149.925552 501.719452,150.161850 
	C500.983551,152.750610 500.247681,155.339371 499.150574,159.198853 
	C495.942657,154.384644 493.041168,150.589050 490.760895,146.451126 
	C488.478790,142.309875 486.817413,137.826553 484.437500,132.492538 
	C482.912354,152.546768 493.386322,173.930664 511.084747,188.612274 
M493.525482,82.941093 
	C489.558380,85.541733 485.591278,88.142372 481.118164,90.157959 
	C480.936371,89.975082 480.754608,89.792213 480.647675,88.854446 
	C483.737549,81.851753 486.827393,74.849060 489.596130,68.574211 
	C473.708618,73.475639 454.329559,93.616135 454.517365,105.920769 
	C457.753876,103.512657 460.989349,101.105316 465.314056,97.887558 
	C461.238495,115.007370 464.557526,129.638580 471.891205,145.031967 
	C472.741272,139.766647 473.291992,135.829590 474.021729,131.926025 
	C477.322479,114.269257 482.428589,97.348061 494.099609,82.928123 
	C494.099609,82.928123 494.121613,82.840889 494.121613,82.840889 
	C494.121613,82.840889 494.218719,83.270546 493.525482,82.941093 
M465.970978,219.807678 
	C466.241638,219.771103 466.512329,219.734528 466.782990,219.697937 
	C466.542328,219.446381 466.301666,219.194824 465.880737,218.293243 
	C453.681305,205.731445 442.032990,192.747452 433.895386,176.870834 
	C433.895386,180.235275 433.895386,183.599716 433.895386,186.964172 
	C429.185211,174.615143 418.606232,163.733276 425.377197,148.445419 
	C422.486023,149.292664 420.467407,149.884232 418.114929,150.119537 
	C418.114929,150.119537 417.771118,149.772934 417.974854,149.122131 
	C427.750549,138.311066 428.628021,123.663940 434.621185,111.192413 
	C427.291168,116.232597 420.642365,121.895569 417.765350,130.424576 
	C414.190308,141.023193 408.465363,150.195480 401.143768,158.505493 
	C400.669250,159.044067 400.490692,159.843369 399.762970,161.403580 
	C402.705078,161.403580 405.007141,161.709274 407.183990,161.318100 
	C409.385437,160.922516 411.462891,159.836884 413.627258,159.041550 
	C416.522339,175.972275 431.541779,201.232147 443.233551,208.589920 
	C442.316986,205.810883 441.506226,203.352600 440.830475,201.303711 
	C449.123718,207.362732 457.352509,213.374664 465.970978,219.807678 
M532.989624,319.372650 
	C533.216797,319.390411 533.443970,319.408203 533.671143,319.425995 
	C533.436829,319.290253 533.202454,319.154480 532.928833,318.326874 
	C522.953369,302.483337 512.977966,286.639801 502.985138,270.768707 
	C502.985138,274.449677 502.985138,278.414307 502.985138,283.618195 
	C486.238434,265.505188 474.590027,245.528076 463.321655,224.642365 
	C464.041138,234.076096 464.760620,243.509842 465.480103,252.943588 
	C464.996460,253.052979 464.512817,253.162384 464.029175,253.271774 
	C458.781677,241.002289 453.534180,228.732788 448.515686,216.998718 
	C445.905212,229.661011 443.202301,242.771637 440.291565,256.890259 
	C437.886780,253.625504 436.241089,251.391296 435.062622,249.791412 
	C435.062622,265.986725 435.062622,282.345673 435.062622,298.704620 
	C435.439056,298.921051 435.815521,299.137512 436.191956,299.353973 
	C441.490570,293.590790 446.789215,287.827576 452.139740,282.007904 
	C466.457458,292.246765 480.824310,302.141785 498.318207,308.445801 
	C493.900177,303.268677 490.184692,298.914825 486.469238,294.560974 
	C498.772888,300.714539 510.230438,307.450867 521.820435,313.951050 
	C525.379272,315.947052 529.300476,317.296814 532.989624,319.372650 
M544.872009,333.654663 
	C544.716125,333.692413 544.560303,333.730164 544.404419,333.767853 
	C544.623901,333.822784 544.843384,333.877716 544.813416,334.664856 
	C549.623169,345.206055 555.140137,354.724030 563.989868,363.113861 
	C575.575073,374.096985 584.757324,387.682495 594.473267,400.526703 
	C597.235718,404.178619 599.915161,405.510864 604.296936,405.675354 
	C613.087708,406.005432 621.845215,407.135010 630.632202,407.681671 
	C636.085266,408.020966 641.610352,408.352844 647.023376,407.842590 
	C651.849670,407.387634 655.245728,403.215759 654.338684,399.387085 
	C652.513977,391.684662 648.241760,385.637146 641.072449,381.613647 
	C640.823853,381.588379 640.575256,381.563141 640.326660,381.537903 
	C640.564209,381.681793 640.801819,381.825684 640.947144,382.770386 
	C641.802551,386.545776 642.658020,390.321167 643.513489,394.096558 
	C642.978821,394.439331 642.444092,394.782135 641.909424,395.124908 
	C637.668823,390.230621 633.428162,385.336334 629.187500,380.442078 
	C628.847961,380.776367 628.508423,381.110626 628.168945,381.444916 
	C628.827698,384.724640 629.486450,388.004364 630.145203,391.284088 
	C623.753418,384.005280 616.314026,382.881409 607.667236,385.345764 
	C606.327637,385.727570 603.688538,384.573273 602.886475,383.331146 
	C597.337585,374.737671 592.116211,365.932739 587.238464,356.735657 
	C587.372437,356.568481 587.506470,356.401337 588.272278,356.487885 
	C595.657471,361.592926 603.046143,366.693085 610.426819,371.804626 
	C615.804932,375.529175 621.726196,376.748535 628.276245,377.024597 
	C635.484375,377.328369 642.636841,378.992340 649.807312,380.104187 
	C650.822571,380.261627 651.802368,380.647644 653.817505,381.214478 
	C650.758240,374.263763 647.512573,368.889709 640.420471,367.870087 
	C633.860229,366.926880 627.207703,366.391174 620.581177,366.209717 
	C614.120911,366.032867 609.454285,363.477661 606.351257,357.839813 
	C602.666321,351.144775 598.932495,344.475861 595.143494,337.839233 
	C593.081055,334.226837 590.860291,330.704803 588.710999,327.141998 
	C588.439209,327.277710 588.167358,327.413391 587.895569,327.549103 
	C589.757812,334.745514 591.620056,341.941956 593.482300,349.138397 
	C592.990112,349.340332 592.497925,349.542297 592.005737,349.744232 
	C578.671936,333.691956 566.282654,317.010986 558.172241,297.441223 
	C565.642090,305.223206 573.111938,313.005219 580.581726,320.787201 
	C581.140564,320.322418 581.699402,319.857605 582.258240,319.392822 
	C581.667053,317.918488 581.066162,316.447968 580.486328,314.969208 
	C576.123657,303.844299 571.688538,292.746704 567.467163,281.568420 
	C566.572998,279.200653 566.464111,276.536316 565.999939,274.000214 
	C565.999939,274.000214 566.000000,273.999512 566.663635,274.132355 
	C570.461487,277.499268 574.259338,280.866150 578.613770,284.726410 
	C576.894958,275.103424 575.356750,266.491730 573.802429,257.789612 
	C553.744568,256.250458 536.040222,247.952805 517.156250,239.504868 
	C519.090027,243.747589 520.479858,246.796829 522.112122,250.378067 
	C514.411621,248.020630 507.376160,245.866806 500.374969,243.723465 
	C503.587402,250.596954 507.043335,256.875977 509.534149,263.517059 
	C519.452332,289.961517 532.898499,314.223175 552.340942,334.936951 
	C553.223755,335.877533 553.648438,337.248260 554.645508,339.076965 
	C550.810303,337.071472 547.899231,335.549225 544.872009,333.654663 
M571.076660,54.193115 
	C570.630676,54.278332 570.184753,54.363548 569.738770,54.448772 
	C570.131287,54.661430 570.523804,54.874088 571.139526,55.721001 
	C574.320374,59.128838 577.501221,62.536674 580.682068,65.944511 
	C573.708801,65.396820 567.690674,63.112789 561.542786,62.682953 
	C550.333374,61.899235 538.983826,61.428642 527.813721,62.329220 
	C519.422607,63.005745 515.732361,68.970757 515.835022,77.445435 
	C515.925354,84.907516 520.171997,89.841446 525.845947,93.759537 
	C529.626953,96.370461 533.711304,98.542068 537.867676,101.034920 
	C524.420471,121.801071 528.352173,142.927399 534.996704,164.448608 
	C552.292908,156.123474 562.087158,153.241074 567.910889,154.807297 
	C566.935669,155.646362 566.049622,156.352921 565.230347,157.129807 
	C564.471619,157.849365 563.784241,158.644165 563.065430,159.405823 
	C579.809875,157.608551 595.805176,159.727737 611.693054,163.870697 
	C618.454163,165.633728 623.769226,162.888092 627.046692,156.181732 
	C627.800537,154.639099 627.050598,151.664444 625.945740,150.077988 
	C624.386475,147.839233 621.753845,144.627029 619.753784,144.746201 
	C614.244629,145.074448 608.768066,146.712280 603.386108,148.216705 
	C596.710205,150.082825 591.633667,147.388168 589.438477,140.166199 
	C596.647522,140.166199 603.801575,139.827774 610.907349,140.268448 
	C617.093262,140.652084 621.949768,138.746017 625.941956,134.172913 
	C626.195007,133.883011 626.735229,133.843781 627.115112,133.698151 
	C627.963074,134.953598 628.710266,136.059738 629.871765,137.779388 
	C629.208862,127.313904 633.625366,116.174805 619.525452,110.196907 
	C631.400757,109.406357 631.400757,109.406357 632.395569,117.558723 
	C637.523621,111.469223 637.150940,106.493340 630.777161,102.413139 
	C624.065125,98.116364 617.390503,93.513252 610.112305,90.430519 
	C604.721436,88.147202 602.241516,85.593437 602.709595,79.717987 
	C602.873047,77.666176 601.872986,74.878929 600.408020,73.446327 
	C592.032104,65.255394 582.720459,58.351192 571.076660,54.193115 
M440.394775,335.728882 
	C437.108185,337.056915 433.821564,338.384949 430.534943,339.712982 
	C429.982513,339.294312 429.430084,338.875641 428.877625,338.456970 
	C432.377930,327.790375 435.878235,317.123749 439.673340,305.558807 
	C435.035004,308.954895 431.343597,311.657623 426.514191,315.193573 
	C429.451538,297.466705 427.617218,281.643585 424.988434,265.863556 
	C422.494843,250.894989 423.825928,236.051071 427.265930,221.014725 
	C428.687103,228.161652 430.108276,235.308578 431.529480,242.455521 
	C435.372345,234.269104 438.940491,225.975952 438.188690,216.631332 
	C438.087555,215.374298 436.974304,214.015839 435.994324,213.041779 
	C429.195007,206.283478 422.178162,199.739304 415.508270,192.857803 
	C412.680664,189.940521 410.521576,186.375275 408.017822,183.050323 
	C400.780060,188.418900 393.018921,190.540375 384.640961,190.099243 
	C378.347504,189.767868 372.033203,189.244263 365.811707,188.271896 
	C356.462097,186.810623 347.250610,184.090424 337.864197,183.318588 
	C319.004333,181.767792 302.485077,189.097687 286.566071,198.376968 
	C268.526154,208.892548 254.565491,223.537018 241.875900,239.851471 
	C232.341293,252.109695 220.910385,262.566772 206.731430,269.732056 
	C206.582504,269.602264 206.433578,269.472443 206.678116,268.803253 
	C224.820511,245.929825 232.933395,218.905487 239.866318,190.247986 
	C223.203552,191.829453 209.927551,200.247025 194.277252,205.932693 
	C208.344467,188.639069 224.319443,175.821274 240.715271,163.156677 
	C236.194778,163.750595 231.912476,164.756561 227.862274,166.351837 
	C209.828979,173.454697 193.796906,184.060394 179.737808,197.102768 
	C161.945923,213.608002 145.106842,231.150528 128.085693,248.470596 
	C122.463066,254.191956 116.005646,257.863708 108.177528,258.853119 
	C100.059044,259.879242 95.637131,254.163177 99.732063,247.200699 
	C102.543449,242.420609 107.483948,238.904907 111.406746,234.761551 
	C113.611885,232.432449 116.688690,230.311874 117.622169,227.513412 
	C120.219330,219.727417 118.520340,211.807541 116.902855,203.403732 
	C114.071159,209.765457 112.394707,216.065720 106.821770,220.673950 
	C107.797562,212.387619 108.650887,205.141357 109.610085,196.995987 
	C104.328949,204.457535 99.738205,210.943665 94.737595,218.008881 
	C90.861008,210.281387 90.466835,203.358124 95.674088,198.245377 
	C100.258087,193.744553 106.536407,190.969391 111.350060,187.890411 
	C110.206367,187.584229 107.672356,186.736084 105.071281,186.238480 
	C92.906212,183.911270 85.298866,187.991653 81.409294,199.715302 
	C80.100723,203.659500 79.693108,208.354507 80.412537,212.435043 
	C82.585396,224.759201 82.669487,236.897614 79.854782,249.103989 
	C79.150963,252.156204 78.934738,255.366791 78.868690,258.512451 
	C78.523605,274.949219 87.334747,282.250244 103.799988,280.709930 
	C119.950340,279.199066 132.367371,271.192261 144.421936,261.225372 
	C159.399414,248.841766 175.136719,237.377090 190.967010,225.960907 
	C191.111923,226.104950 191.256851,226.248993 191.314499,227.131317 
	C190.068481,230.566788 189.003403,234.080978 187.548325,237.425491 
	C173.539520,269.624847 150.632645,294.613861 122.861397,315.233826 
	C116.000900,320.327728 113.701096,325.790710 113.951439,333.595520 
	C114.565102,352.727325 114.896912,371.868164 115.506989,391.000122 
	C115.627960,394.793762 116.119400,398.660919 117.088928,402.322327 
	C118.566177,407.901123 121.571152,409.254089 127.183334,408.294983 
	C130.739487,407.687225 134.426529,407.503143 138.037674,407.627716 
	C146.678177,407.925751 155.306763,408.745972 163.944366,408.813049 
	C165.814957,408.827606 168.879120,406.927429 169.385895,405.288422 
	C171.998245,396.839508 168.981766,388.426727 161.643005,383.324097 
	C157.572311,380.493744 152.920334,378.512451 148.695984,375.882446 
	C147.361649,375.051697 145.775635,373.434174 145.643448,372.048981 
	C144.401199,359.031799 146.405823,346.851959 157.770874,338.597137 
	C164.438354,333.754395 171.549744,329.239441 179.047592,325.888428 
	C190.863342,320.607513 203.272873,316.673065 215.244659,311.718262 
	C226.981766,306.860565 238.486053,301.440308 250.342270,296.155609 
	C250.530396,297.299896 250.824097,298.739105 250.997116,300.192657 
	C252.566345,313.376282 252.256561,326.623291 248.815155,339.353180 
	C246.738846,347.033447 249.222427,352.023926 254.374359,356.448273 
	C263.207733,364.034241 272.653198,370.930176 281.231903,378.782043 
	C287.036835,384.095062 291.977051,390.404175 296.943939,396.558380 
	C299.209564,399.365601 300.763489,402.798096 302.355988,406.084717 
	C304.346802,410.193420 307.589478,412.153076 311.964600,411.800964 
	C324.878235,410.761719 337.775421,409.518402 350.559875,408.365723 
	C352.343903,397.496552 348.891235,386.298401 340.423798,376.767426 
	C338.489441,374.590088 335.453888,372.716034 332.630798,372.136566 
	C325.643158,370.702271 318.470245,370.193420 311.406952,369.088043 
	C309.797760,368.836212 307.899200,368.047913 306.877075,366.864594 
	C303.408051,362.848389 300.351349,358.479858 296.993439,354.363159 
	C287.834778,343.134918 287.308380,328.235199 296.118042,316.825226 
	C306.224274,303.735992 315.288910,290.098083 320.739746,272.840332 
	C330.702728,275.114807 340.488129,277.368805 350.283264,279.579681 
	C361.614136,282.137177 372.889465,285.016724 384.314331,287.052429 
	C390.769836,288.202667 397.477386,287.938202 404.362885,288.327423 
	C404.523010,290.039734 404.725311,291.673401 404.821320,293.313324 
	C405.682526,308.019989 402.810394,322.009674 397.611389,335.767883 
	C395.819489,340.509766 394.903717,346.306335 395.808716,351.211334 
	C398.819916,367.532043 402.692749,383.702576 406.636688,399.832520 
	C407.207703,402.167786 409.569366,404.914917 411.789276,405.862946 
	C429.520081,413.435150 447.264252,414.245514 464.456055,404.244293 
	C466.213440,403.221954 468.096375,400.349915 467.953064,398.487640 
	C467.370209,390.914398 466.283875,383.349976 464.860870,375.881805 
	C463.905609,370.868347 460.340576,367.852417 455.261536,366.925140 
	C450.683105,366.089294 446.056244,365.508240 441.492798,364.603058 
	C435.405945,363.395691 433.016937,360.247070 434.605530,354.243378 
	C436.247620,348.037720 438.832458,342.081543 441.331512,335.784576 
	C441.247528,335.656708 441.163544,335.528870 441.079559,335.401001 
	C441.089264,335.626892 441.098969,335.852814 440.394775,335.728882 
M600.695801,533.569458 
	C604.307922,533.569458 607.920044,533.569458 612.125366,533.569458 
	C612.125366,512.776184 612.125366,492.652740 612.125366,471.399994 
	C625.712463,491.671722 638.559937,510.887878 651.497559,530.043091 
	C652.439026,531.437012 653.954529,533.257629 655.341919,533.386475 
	C659.901672,533.810303 664.525391,533.545898 669.222778,533.545898 
	C669.222778,502.993042 669.222778,473.116913 669.222778,443.342957 
	C663.630188,443.342957 658.391907,443.342957 652.736816,443.342957 
	C652.736816,463.868774 652.736816,484.041626 652.736816,505.108978 
	C651.237122,502.962097 650.280090,501.637146 649.369141,500.281250 
	C637.307617,482.328674 625.276123,464.355865 613.149780,446.447205 
	C612.216919,445.069550 610.705383,443.278900 609.328857,443.153778 
	C604.759399,442.738495 600.128723,442.996826 595.343384,442.996826 
	C595.343384,473.342712 595.343384,503.107483 595.343384,533.275330 
	C596.869751,533.376648 598.320068,533.472900 600.695801,533.569458 
M528.007080,441.361633 
	C515.642029,442.965393 504.853546,447.834564 497.020844,457.728668 
	C484.980255,472.938080 483.310242,490.146667 490.332916,507.648285 
	C497.385559,525.224670 511.669556,533.868225 530.356445,535.190430 
	C549.433411,536.540344 565.513550,530.433228 575.580994,513.673218 
	C585.746094,496.750793 585.558411,478.835632 575.071289,462.087463 
	C564.542664,445.273132 548.022095,439.952423 528.007080,441.361633 
M371.844452,457.846527 
	C367.852112,449.723145 361.134644,444.582275 352.386902,444.056519 
	C336.977112,443.130371 321.495667,443.395172 306.043793,443.193573 
	C305.807098,443.190491 305.565002,443.601501 305.411011,443.741486 
	C305.411011,473.558075 305.411011,503.291931 305.411011,533.187500 
	C311.045807,533.187500 316.412933,533.187500 322.134094,533.187500 
	C322.134094,522.208801 322.134094,511.599579 322.134094,500.562134 
	C326.776428,500.562134 331.076935,500.756927 335.349792,500.497009 
	C338.452393,500.308289 340.125305,501.432098 341.512024,504.199615 
	C345.900909,512.958496 350.500061,521.615417 355.204926,530.209351 
	C355.961914,531.592102 357.606537,533.288391 358.960022,533.400391 
	C363.687073,533.791748 368.466339,533.551941 374.048615,533.551941 
	C367.768158,521.561890 361.890503,510.340881 356.020630,499.134766 
	C373.314636,489.785980 378.512299,476.392822 371.844452,457.846527 
M187.271362,442.987488 
	C183.316559,442.987488 179.361771,442.987488 174.910034,442.987488 
	C174.910034,455.676361 174.910034,467.919403 174.910034,480.241943 
	C160.445251,480.241943 146.493149,480.241943 132.020355,480.241943 
	C132.020355,467.828461 132.020355,455.590820 132.020355,443.370026 
	C126.117310,443.370026 120.745506,443.370026 115.403259,443.370026 
	C115.403259,473.510620 115.403259,503.267883 115.403259,533.193481 
	C121.038208,533.193481 126.410133,533.193481 132.197235,533.193481 
	C132.197235,520.062195 132.197235,507.301910 132.197235,494.540649 
	C146.675079,494.540649 160.727173,494.540649 175.178223,494.540649 
	C175.178223,507.657715 175.178223,520.416626 175.178223,533.158875 
	C180.809265,533.158875 186.028610,533.158875 191.569550,533.158875 
	C191.569550,521.939575 191.569550,511.127380 191.569534,500.315216 
	C191.569504,482.652985 191.558762,464.990784 191.582016,447.328583 
	C191.585159,444.939484 191.957138,442.397064 187.271362,442.987488 
M268.546448,472.864563 
	C266.012329,466.545654 263.458008,460.234772 260.948608,453.906036 
	C256.608673,442.960815 256.617310,443.115570 245.099442,442.895935 
	C241.553345,442.828308 239.961334,443.952972 238.664047,447.234406 
	C227.920715,474.408691 216.971313,501.501465 206.106323,528.627747 
	C205.519516,530.092773 205.130264,531.636963 204.515717,533.562012 
	C209.088547,533.562012 213.084991,533.359802 217.049942,533.626221 
	C220.203079,533.838013 221.901443,532.793579 222.912491,529.741821 
	C224.477982,525.016602 226.238968,520.327271 228.362350,515.833130 
	C229.001709,514.479919 231.100739,513.014465 232.563095,512.980469 
	C243.049194,512.737305 253.544769,512.936707 264.034393,512.788147 
	C266.596497,512.751831 267.918304,513.540894 268.778748,515.952393 
	C270.509613,520.803040 272.391602,525.609924 274.474823,530.318237 
	C275.044617,531.606079 276.489594,533.312988 277.638123,533.397461 
	C282.368561,533.745483 287.139496,533.543152 292.669098,533.543152 
	C284.506378,512.992371 276.677948,493.283203 268.546448,472.864563 
M76.127708,441.169250 
	C74.464607,441.110168 72.801170,440.991608 71.138466,441.001129 
	C52.429508,441.107971 36.321754,447.006012 27.464499,464.464661 
	C18.592403,481.952576 19.125799,499.929199 30.093992,516.651917 
	C45.842091,540.662231 84.408569,538.948608 100.761879,527.485901 
	C101.715149,526.817688 102.688614,525.447937 102.744469,524.358093 
	C102.969490,519.966858 102.837685,515.557312 102.837685,511.849396 
	C95.577873,514.518555 88.854012,518.090393 81.718636,519.372986 
	C68.933678,521.671265 56.326752,520.756836 46.594734,510.345642 
	C37.978401,501.128082 36.058037,484.850189 41.941433,472.928802 
	C47.525242,461.614410 60.526997,455.090576 74.557907,456.262085 
	C84.077644,457.056946 93.052612,459.320557 101.562035,465.798309 
	C101.562035,461.204559 101.279884,457.724121 101.639404,454.311249 
	C102.017761,450.719635 100.611626,448.406891 97.441193,447.384064 
	C90.687508,445.205231 83.843460,443.306458 76.127708,441.169250 
M700.912109,468.070068 
	C700.845886,460.657684 703.144470,456.923767 710.310547,455.694489 
	C715.609253,454.785522 721.251343,454.963257 726.617554,455.636353 
	C731.380493,456.233795 735.974182,458.179993 740.848389,459.590393 
	C740.848389,456.426727 740.590942,453.568634 740.912659,450.777313 
	C741.327576,447.178040 739.937073,445.438202 736.531067,444.347748 
	C726.015320,440.981110 715.377991,439.932312 704.527588,442.099792 
	C693.110352,444.380524 684.965515,452.066681 683.231445,461.944275 
	C681.347351,472.676178 685.784180,481.823822 696.462036,488.127960 
	C701.015381,490.816254 706.019775,492.737854 710.806213,495.034912 
	C714.693115,496.900208 718.842224,498.389282 722.378357,500.779877 
	C729.839111,505.823761 729.037903,516.186768 720.776917,519.672363 
	C716.937805,521.292175 712.283752,522.187988 708.184753,521.734558 
	C699.537292,520.777893 691.012085,518.716125 682.151672,517.054321 
	C682.151672,519.475342 682.479675,522.637817 682.069397,525.701294 
	C681.546021,529.609375 683.561035,531.006836 686.771667,531.960022 
	C698.099060,535.322876 709.647095,536.458740 721.317932,534.780701 
	C737.935486,532.391235 745.869141,523.013367 745.163635,507.247925 
	C744.735474,497.680725 739.124390,491.563507 731.231384,487.425842 
	C724.030640,483.651154 716.281738,480.901764 709.178894,476.969788 
	C705.951660,475.183258 703.701172,471.632416 700.912109,468.070068 
M280.569733,143.057510 
	C271.713623,147.645782 262.857544,152.234055 254.001450,156.822327 
	C254.203583,157.260056 254.405731,157.697784 254.607864,158.135513 
	C261.557678,156.598999 268.464966,154.823807 275.466187,153.575668 
	C290.023315,150.980484 304.579773,147.558090 319.507324,150.032852 
	C327.041656,151.281937 334.396729,153.686722 341.948517,154.738327 
	C352.678589,156.232513 363.515198,156.961288 373.892090,157.976578 
	C369.766571,163.414444 365.225128,169.400604 360.167816,176.066681 
	C375.699066,178.595261 389.822723,178.162186 404.437378,172.324921 
	C396.675323,170.650055 389.810394,169.168762 382.997375,167.698669 
	C389.324951,156.527588 395.166840,146.213974 401.008728,135.900375 
	C400.666656,135.478668 400.324554,135.056976 399.982483,134.635269 
	C380.302612,141.521530 360.550873,138.549973 340.708771,136.108810 
	C320.452240,133.616669 300.495758,135.192734 280.569733,143.057510 
M402.181641,443.009064 
	C397.259033,443.009064 392.336456,443.009064 387.377747,443.009064 
	C387.377747,473.465820 387.377747,503.230499 387.377747,533.267700 
	C407.348389,533.267700 427.083008,533.267700 446.887329,533.267700 
	C446.887329,528.705750 446.887329,524.453796 446.887329,519.752808 
	C432.514221,519.752808 418.428070,519.752808 403.857880,519.752808 
	C403.857880,517.511108 403.857910,515.721252 403.857910,513.931458 
	C403.857910,492.099640 403.875031,470.267792 403.825317,448.436066 
	C403.821350,446.685028 403.356598,444.935059 402.181641,443.009064 
M473.998627,463.500153 
	C473.998627,456.746826 473.998627,449.993530 473.998627,443.340332 
	C467.975922,443.340332 462.585175,443.340332 457.314758,443.340332 
	C457.314758,473.701447 457.314758,503.722595 457.314758,533.660034 
	C463.024200,533.660034 468.412537,533.660034 473.998627,533.660034 
	C473.998627,510.381378 473.998627,487.440765 473.998627,463.500153 
M461.162903,35.445755 
	C455.792328,38.273575 450.421753,41.101391 445.051178,43.929211 
	C445.262573,44.337811 445.473969,44.746410 445.685333,45.155010 
	C449.682434,44.766239 453.679504,44.377464 458.078979,43.949554 
	C449.278595,61.065807 437.119568,73.615173 419.165680,80.074554 
	C419.360535,80.443054 419.555389,80.811562 419.750214,81.180069 
	C424.442200,81.180069 429.134186,81.180069 434.116699,81.180069 
	C428.382111,94.740669 422.866699,107.782906 417.351318,120.825142 
	C430.711700,106.218338 440.383881,88.372475 456.425964,75.920944 
	C452.739990,76.473427 449.054016,77.025909 444.575470,77.697182 
	C449.855988,70.953728 454.865082,65.197479 459.151154,58.945553 
	C467.219879,47.175964 477.306580,38.655586 491.993286,36.541424 
	C481.957611,34.566959 472.047302,32.546410 461.162903,35.445755 
M537.314209,239.217484 
	C539.068542,239.529022 540.822815,239.840576 541.383545,239.940155 
	C529.648560,230.017654 517.508057,219.517914 505.074951,209.377029 
	C501.153351,206.178421 496.709534,203.272964 492.031921,201.440094 
	C486.716919,199.357498 483.360962,202.321365 483.233429,208.030884 
	C483.212585,208.963623 483.307983,209.898972 483.417145,212.345413 
	C476.154083,207.426987 469.849243,203.157425 463.307037,198.727142 
	C465.927368,215.020966 483.449371,228.465027 504.934753,230.849564 
	C502.488739,226.706146 497.537964,224.084717 497.617676,216.939758 
	C503.477386,220.566742 508.107178,223.665833 512.953186,226.378708 
	C520.737183,230.736328 528.664246,234.838608 537.314209,239.217484 
M526.008240,108.361687 
	C524.053223,109.868637 522.098206,111.375580 519.614258,113.290222 
	C518.994446,108.873764 517.898499,104.782158 517.973450,100.712112 
	C518.081421,94.845238 515.556335,90.660683 511.339722,87.105133 
	C503.941559,103.527756 508.527954,134.957245 518.722229,144.942200 
	C521.095642,133.564651 523.657654,121.282700 526.008240,108.361687 
M459.152008,179.350006 
	C464.444061,183.720200 469.736084,188.090408 475.028107,192.460602 
	C475.503265,191.983368 475.978424,191.506134 476.453583,191.028900 
	C461.729279,173.877594 451.746307,154.446350 448.105194,131.298172 
	C439.791565,145.027313 438.597595,160.354691 444.634216,169.763840 
	C445.212463,167.925949 445.784454,166.107971 446.430298,164.055237 
	C450.683228,169.203720 454.666443,174.025711 459.152008,179.350006 
M596.864990,184.438568 
	C597.255676,182.504715 597.646362,180.570862 598.109436,178.278793 
	C600.343811,180.692383 602.325867,182.833344 604.307861,184.974304 
	C603.877747,180.860275 602.781860,177.123672 601.691406,173.385513 
	C600.043030,167.734772 597.426941,166.068466 591.195312,166.694809 
	C590.632324,170.856094 590.069336,175.017395 589.338989,180.415634 
	C587.354736,177.092911 586.147766,175.071716 585.437256,173.881927 
	C583.907715,187.718979 582.335388,201.943710 580.725098,216.511719 
	C588.182373,207.010788 593.351746,196.591339 596.864990,184.438568 
M594.185547,212.726151 
	C594.185547,209.520294 594.185547,206.314438 594.185547,202.585922 
	C588.808655,211.111374 583.913269,218.873474 578.574524,227.338440 
	C575.355957,222.103897 572.746887,217.860596 569.441650,212.485107 
	C570.203491,225.367889 572.004272,236.383270 578.090332,245.777344 
	C582.755066,237.238571 587.490051,228.751526 592.015320,220.154099 
	C593.072937,218.144775 593.419067,215.760971 594.185547,212.726151 
M441.870667,319.311798 
	C441.165436,321.736511 440.460175,324.161224 439.754913,326.585907 
	C440.320068,326.838074 440.885193,327.090210 441.450317,327.342377 
	C447.659027,316.405640 453.867737,305.468903 460.005707,294.656769 
	C456.473236,291.808838 453.997040,289.812469 452.159485,288.331024 
	C448.766846,298.462952 445.405457,308.501526 441.870667,319.311798 
M513.408020,58.692543 
	C511.645477,60.632565 509.882904,62.572590 507.200195,65.525383 
	C516.380493,62.090801 524.301819,59.127247 532.376465,56.106331 
	C522.258484,51.248287 511.767426,49.814953 499.920410,53.617046 
	C504.841736,54.450886 508.930786,55.075813 512.973083,55.923534 
	C513.425049,56.018314 513.611877,57.377438 513.408020,58.692543 
M544.425110,240.522415 
	C544.425110,240.522415 544.510193,240.536118 544.425110,240.522415 
z"/>
<path fill="#1651A4" opacity="1.000000" stroke="none" 
	d="
M207.143204,270.158325 
	C220.910385,262.566772 232.341293,252.109695 241.875900,239.851471 
	C254.565491,223.537018 268.526154,208.892548 286.566071,198.376968 
	C302.485077,189.097687 319.004333,181.767792 337.864197,183.318588 
	C347.250610,184.090424 356.462097,186.810623 365.811707,188.271896 
	C372.033203,189.244263 378.347504,189.767868 384.640961,190.099243 
	C393.018921,190.540375 400.780060,188.418900 408.017822,183.050323 
	C410.521576,186.375275 412.680664,189.940521 415.508270,192.857803 
	C422.178162,199.739304 429.195007,206.283478 435.994324,213.041779 
	C436.974304,214.015839 438.087555,215.374298 438.188690,216.631332 
	C438.940491,225.975952 435.372345,234.269104 431.529480,242.455521 
	C430.108276,235.308578 428.687103,228.161652 427.265930,221.014725 
	C423.825928,236.051071 422.494843,250.894989 424.988434,265.863556 
	C427.617218,281.643585 429.451538,297.466705 426.514191,315.193573 
	C431.343597,311.657623 435.035004,308.954895 439.673340,305.558807 
	C435.878235,317.123749 432.377930,327.790375 428.877625,338.456970 
	C429.430084,338.875641 429.982513,339.294312 430.534943,339.712982 
	C433.821564,338.384949 437.108185,337.056915 440.726074,335.887756 
	C441.057343,336.046600 441.004913,336.016235 441.004913,336.016235 
	C438.832458,342.081543 436.247620,348.037720 434.605530,354.243378 
	C433.016937,360.247070 435.405945,363.395691 441.492798,364.603058 
	C446.056244,365.508240 450.683105,366.089294 455.261536,366.925140 
	C460.340576,367.852417 463.905609,370.868347 464.860870,375.881805 
	C466.283875,383.349976 467.370209,390.914398 467.953064,398.487640 
	C468.096375,400.349915 466.213440,403.221954 464.456055,404.244293 
	C447.264252,414.245514 429.520081,413.435150 411.789276,405.862946 
	C409.569366,404.914917 407.207703,402.167786 406.636688,399.832520 
	C402.692749,383.702576 398.819916,367.532043 395.808716,351.211334 
	C394.903717,346.306335 395.819489,340.509766 397.611389,335.767883 
	C402.810394,322.009674 405.682526,308.019989 404.821320,293.313324 
	C404.725311,291.673401 404.523010,290.039734 404.362885,288.327423 
	C397.477386,287.938202 390.769836,288.202667 384.314331,287.052429 
	C372.889465,285.016724 361.614136,282.137177 350.283264,279.579681 
	C340.488129,277.368805 330.702728,275.114807 320.739746,272.840332 
	C315.288910,290.098083 306.224274,303.735992 296.118042,316.825226 
	C287.308380,328.235199 287.834778,343.134918 296.993439,354.363159 
	C300.351349,358.479858 303.408051,362.848389 306.877075,366.864594 
	C307.899200,368.047913 309.797760,368.836212 311.406952,369.088043 
	C318.470245,370.193420 325.643158,370.702271 332.630798,372.136566 
	C335.453888,372.716034 338.489441,374.590088 340.423798,376.767426 
	C348.891235,386.298401 352.343903,397.496552 350.559875,408.365723 
	C337.775421,409.518402 324.878235,410.761719 311.964600,411.800964 
	C307.589478,412.153076 304.346802,410.193420 302.355988,406.084717 
	C300.763489,402.798096 299.209564,399.365601 296.943939,396.558380 
	C291.977051,390.404175 287.036835,384.095062 281.231903,378.782043 
	C272.653198,370.930176 263.207733,364.034241 254.374359,356.448273 
	C249.222427,352.023926 246.738846,347.033447 248.815155,339.353180 
	C252.256561,326.623291 252.566345,313.376282 250.997116,300.192657 
	C250.824097,298.739105 250.530396,297.299896 250.342270,296.155609 
	C238.486053,301.440308 226.981766,306.860565 215.244659,311.718262 
	C203.272873,316.673065 190.863342,320.607513 179.047592,325.888428 
	C171.549744,329.239441 164.438354,333.754395 157.770874,338.597137 
	C146.405823,346.851959 144.401199,359.031799 145.643448,372.048981 
	C145.775635,373.434174 147.361649,375.051697 148.695984,375.882446 
	C152.920334,378.512451 157.572311,380.493744 161.643005,383.324097 
	C168.981766,388.426727 171.998245,396.839508 169.385895,405.288422 
	C168.879120,406.927429 165.814957,408.827606 163.944366,408.813049 
	C155.306763,408.745972 146.678177,407.925751 138.037674,407.627716 
	C134.426529,407.503143 130.739487,407.687225 127.183334,408.294983 
	C121.571152,409.254089 118.566177,407.901123 117.088928,402.322327 
	C116.119400,398.660919 115.627960,394.793762 115.506989,391.000122 
	C114.896912,371.868164 114.565102,352.727325 113.951439,333.595520 
	C113.701096,325.790710 116.000900,320.327728 122.861397,315.233826 
	C150.632645,294.613861 173.539520,269.624847 187.548325,237.425491 
	C189.003403,234.080978 190.068481,230.566788 191.545105,226.555252 
	C191.365753,225.824631 190.955795,225.670074 190.545853,225.515533 
	C175.136719,237.377090 159.399414,248.841766 144.421936,261.225372 
	C132.367371,271.192261 119.950340,279.199066 103.799988,280.709930 
	C87.334747,282.250244 78.523605,274.949219 78.868690,258.512451 
	C78.934738,255.366791 79.150963,252.156204 79.854782,249.103989 
	C82.669487,236.897614 82.585396,224.759201 80.412537,212.435043 
	C79.693108,208.354507 80.100723,203.659500 81.409294,199.715302 
	C85.298866,187.991653 92.906212,183.911270 105.071281,186.238480 
	C107.672356,186.736084 110.206367,187.584229 111.350060,187.890411 
	C106.536407,190.969391 100.258087,193.744553 95.674088,198.245377 
	C90.466835,203.358124 90.861008,210.281387 94.737595,218.008881 
	C99.738205,210.943665 104.328949,204.457535 109.610085,196.995987 
	C108.650887,205.141357 107.797562,212.387619 106.821770,220.673950 
	C112.394707,216.065720 114.071159,209.765457 116.902855,203.403732 
	C118.520340,211.807541 120.219330,219.727417 117.622169,227.513412 
	C116.688690,230.311874 113.611885,232.432449 111.406746,234.761551 
	C107.483948,238.904907 102.543449,242.420609 99.732063,247.200699 
	C95.637131,254.163177 100.059044,259.879242 108.177528,258.853119 
	C116.005646,257.863708 122.463066,254.191956 128.085693,248.470596 
	C145.106842,231.150528 161.945923,213.608002 179.737808,197.102768 
	C193.796906,184.060394 209.828979,173.454697 227.862274,166.351837 
	C231.912476,164.756561 236.194778,163.750595 240.715271,163.156677 
	C224.319443,175.821274 208.344467,188.639069 194.277252,205.932693 
	C209.927551,200.247025 223.203552,191.829453 239.866318,190.247986 
	C232.933395,218.905487 224.820511,245.929825 206.249741,269.245880 
	C205.657349,270.025360 205.493317,270.362183 205.329285,270.699036 
	C205.933929,270.518799 206.538574,270.338562 207.143204,270.158325 
M384.798065,246.665085 
	C367.224701,253.137848 349.206085,257.889771 330.298218,260.395325 
	C340.847198,268.004608 360.134766,269.431519 388.308777,268.760071 
	C381.253235,266.367615 375.116394,264.286682 368.552521,262.060974 
	C372.115356,259.388794 375.155060,257.351440 377.905701,254.979034 
	C380.770905,252.507812 383.357239,249.713287 386.604401,246.923447 
	C386.622894,246.689957 386.641418,246.456467 386.659912,246.222977 
	C386.282684,246.325882 385.905487,246.428787 384.798065,246.665085 
M235.765182,280.592346 
	C218.091370,286.414246 200.233246,291.331909 180.702484,291.260529 
	C184.709778,297.109985 191.068024,296.756989 196.369385,299.181885 
	C188.099533,305.429169 180.231155,311.373138 171.651947,317.854126 
	C173.177048,317.854126 173.711044,317.991547 174.136215,317.834473 
	C197.277069,309.284027 218.096054,296.754547 237.634415,280.928131 
	C237.673492,280.698883 237.712570,280.469635 237.751648,280.240387 
	C237.335403,280.308014 236.919159,280.375641 235.765182,280.592346 
M419.049011,385.380066 
	C418.796021,385.446686 418.543060,385.513306 418.290070,385.579926 
	C418.501984,385.743073 418.713867,385.906219 418.918549,386.836029 
	C420.102722,390.683167 421.286865,394.530304 422.864899,399.656982 
	C425.387573,393.388092 427.508881,388.116669 430.283905,381.220642 
	C433.952698,387.431152 437.049683,392.673767 440.144836,397.913239 
	C440.144836,392.133881 440.144836,386.120941 440.144836,378.466644 
	C445.655853,382.572998 450.213684,385.969116 454.514893,389.174011 
	C453.437408,379.576019 447.500305,373.760101 436.114838,372.071930 
	C430.654694,371.262329 426.715820,368.763031 424.763641,363.603699 
	C422.497101,357.613373 420.458191,351.536957 418.617065,346.335785 
	C416.106842,351.392670 413.268524,357.110443 411.130371,361.417755 
	C415.429016,367.896667 419.743683,373.707367 423.279480,379.958588 
	C425.878845,384.554260 424.568817,386.023193 419.049011,385.380066 
M161.761642,309.524292 
	C155.216858,314.357666 148.885849,319.522308 142.062958,323.924683 
	C136.074936,327.788422 129.550690,329.443451 122.741890,322.737091 
	C122.741890,337.554382 122.524490,351.304901 122.839447,365.043213 
	C122.983162,371.312073 124.054581,377.574432 124.945595,383.805359 
	C125.406097,387.025635 127.162910,388.958771 130.852676,389.394592 
	C136.760300,390.092407 140.768768,393.692749 143.168594,399.114136 
	C143.838135,400.626709 144.636810,402.082153 145.376251,403.563782 
	C145.691956,403.483185 146.007660,403.402588 146.323364,403.321991 
	C146.323364,398.941467 146.323364,394.560944 146.323364,389.931610 
	C152.940292,390.186707 155.904617,395.751434 159.921677,400.232239 
	C161.213638,389.120239 156.605560,384.582153 140.428070,380.436768 
	C136.370438,365.034271 138.375977,350.476990 146.679108,336.871307 
	C152.125763,327.946259 157.730576,319.117706 163.757965,309.902893 
	C163.741776,309.351318 163.725586,308.799774 163.709412,308.248199 
	C163.262115,308.572815 162.814835,308.897430 161.761642,309.524292 
M252.220535,281.458832 
	C257.149292,278.645691 262.078033,275.832550 266.972382,272.970337 
	C266.972382,272.970337 266.936493,272.922333 267.261780,273.751953 
	C265.930237,282.626770 264.480591,291.485901 263.300629,300.380829 
	C262.138519,309.141205 261.249756,317.937836 260.241058,326.718567 
	C260.703613,326.811157 261.166199,326.903778 261.628754,326.996368 
	C268.805817,302.537323 278.889160,279.326141 291.250031,257.112854 
	C303.611542,234.898422 318.097534,214.171234 335.109344,194.852997 
	C323.206055,198.316116 311.347778,201.697418 300.276276,206.789368 
	C292.436096,210.395218 284.638184,215.306213 278.617371,221.407028 
	C265.314056,234.887146 253.142548,249.484344 240.515823,263.631653 
	C239.642746,264.609863 238.823288,265.635925 237.270447,267.481964 
	C249.717453,264.660339 259.353699,258.841339 269.257233,253.256424 
	C269.257233,253.256424 269.599182,253.509399 269.494720,254.233002 
	C265.732147,264.820129 257.879120,272.564026 250.407028,281.070801 
	C250.383759,281.291931 250.360474,281.513092 250.337189,281.734222 
	C250.724075,281.675293 251.110977,281.616364 252.220535,281.458832 
M333.766846,379.554291 
	C326.954834,378.421997 320.167450,376.621277 313.323029,376.369537 
	C307.874390,376.169128 303.673035,374.835052 300.247803,370.665558 
	C293.171417,362.051605 285.684265,353.747467 279.071808,344.794617 
	C276.678253,341.553864 275.895416,336.899170 275.117920,332.750916 
	C274.310242,328.441376 274.398163,323.964020 274.094421,319.560089 
	C273.568848,319.427917 273.043274,319.295715 272.517700,319.163544 
	C269.355103,327.632629 266.112610,336.073792 263.128845,344.605438 
	C262.746521,345.698608 263.280121,347.673889 264.114838,348.546936 
	C277.333557,362.372070 290.666473,376.088104 303.984558,389.818115 
	C306.958344,392.883820 310.448853,393.959717 314.821991,393.559052 
	C317.214294,393.339813 320.485443,394.030640 322.057037,395.608826 
	C324.309662,397.870911 325.371094,401.319214 327.417084,405.152893 
	C328.017029,400.486664 328.536011,396.450165 329.102509,392.044250 
	C334.021454,390.529755 338.315887,391.953430 341.933685,396.352417 
	C340.246368,390.398041 339.592896,384.156769 333.766846,379.554291 
M394.914978,201.650894 
	C379.719116,202.932022 364.678467,202.413345 349.873718,198.235519 
	C348.294678,197.789902 345.702759,198.150742 344.604767,199.204483 
	C330.152405,213.074631 316.531616,227.672852 306.764923,245.385284 
	C305.165375,248.286118 303.942078,251.394440 302.544891,254.406860 
	C304.652893,253.722488 305.725220,252.467590 306.916534,251.338135 
	C320.559387,238.403732 334.143341,225.404678 347.977661,212.677963 
	C349.636292,211.152130 352.722656,210.400742 355.076233,210.535049 
	C369.528198,211.359680 383.685181,210.271439 397.296539,205.013596 
	C400.162994,203.906342 402.819244,202.254944 405.572357,200.854279 
	C405.428314,200.597565 405.284271,200.340866 405.140228,200.084167 
	C402.026154,200.550186 398.912048,201.016220 394.914978,201.650894 
z"/>
<path fill="#1450A3" opacity="1.000000" stroke="none" 
	d="
M571.458130,54.507332 
	C582.720459,58.351192 592.032104,65.255394 600.408020,73.446327 
	C601.872986,74.878929 602.873047,77.666176 602.709595,79.717987 
	C602.241516,85.593437 604.721436,88.147202 610.112305,90.430519 
	C617.390503,93.513252 624.065125,98.116364 630.777161,102.413139 
	C637.150940,106.493340 637.523621,111.469223 632.395569,117.558723 
	C631.400757,109.406357 631.400757,109.406357 619.525452,110.196907 
	C633.625366,116.174805 629.208862,127.313904 629.871765,137.779388 
	C628.710266,136.059738 627.963074,134.953598 627.115112,133.698151 
	C626.735229,133.843781 626.195007,133.883011 625.941956,134.172913 
	C621.949768,138.746017 617.093262,140.652084 610.907349,140.268448 
	C603.801575,139.827774 596.647522,140.166199 589.438477,140.166199 
	C591.633667,147.388168 596.710205,150.082825 603.386108,148.216705 
	C608.768066,146.712280 614.244629,145.074448 619.753784,144.746201 
	C621.753845,144.627029 624.386475,147.839233 625.945740,150.077988 
	C627.050598,151.664444 627.800537,154.639099 627.046692,156.181732 
	C623.769226,162.888092 618.454163,165.633728 611.693054,163.870697 
	C595.805176,159.727737 579.809875,157.608551 563.065430,159.405823 
	C563.784241,158.644165 564.471619,157.849365 565.230347,157.129807 
	C566.049622,156.352921 566.935669,155.646362 567.910889,154.807297 
	C562.087158,153.241074 552.292908,156.123474 534.996704,164.448608 
	C528.352173,142.927399 524.420471,121.801071 537.867676,101.034920 
	C533.711304,98.542068 529.626953,96.370461 525.845947,93.759537 
	C520.171997,89.841446 515.925354,84.907516 515.835022,77.445435 
	C515.732361,68.970757 519.422607,63.005745 527.813721,62.329220 
	C538.983826,61.428642 550.333374,61.899235 561.542786,62.682953 
	C567.690674,63.112789 573.708801,65.396820 580.682068,65.944511 
	C577.501221,62.536674 574.320374,59.128838 571.166016,55.261482 
	C571.192505,54.801968 571.458130,54.507332 571.458130,54.507332 
M539.180969,72.856506 
	C539.883606,72.389000 540.586304,71.921486 541.565002,71.270294 
	C529.960571,68.916115 523.958923,71.038315 522.372070,77.792603 
	C521.614197,81.018303 528.515930,87.052132 534.239441,88.167610 
	C538.232361,88.945801 540.550842,86.829430 541.800659,81.330978 
	C538.446533,80.551147 535.092834,79.771416 531.739136,78.991684 
	C531.662476,78.402473 531.585815,77.813271 531.509094,77.224068 
	C533.842285,75.850128 536.175537,74.476189 539.180969,72.856506 
M587.158203,88.248955 
	C583.058777,85.039429 580.826294,86.125885 576.071655,93.860550 
	C581.541748,93.860550 586.826111,93.860550 593.234680,93.860550 
	C590.937805,91.757812 589.299927,90.258408 587.158203,88.248955 
z"/>
<path fill="#1651A4" opacity="1.000000" stroke="none" 
	d="
M544.988159,334.026978 
	C547.899231,335.549225 550.810303,337.071472 554.645508,339.076965 
	C553.648438,337.248260 553.223755,335.877533 552.340942,334.936951 
	C532.898499,314.223175 519.452332,289.961517 509.534149,263.517059 
	C507.043335,256.875977 503.587402,250.596954 500.374969,243.723465 
	C507.376160,245.866806 514.411621,248.020630 522.112122,250.378067 
	C520.479858,246.796829 519.090027,243.747589 517.156250,239.504868 
	C536.040222,247.952805 553.744568,256.250458 573.802429,257.789612 
	C575.356750,266.491730 576.894958,275.103424 578.613770,284.726410 
	C574.259338,280.866150 570.461487,277.499268 566.279663,273.800415 
	C565.692322,273.493134 565.488831,273.517731 565.285400,273.542358 
	C565.521423,273.697784 565.757446,273.853210 565.993469,274.008636 
	C566.464111,276.536316 566.572998,279.200653 567.467163,281.568420 
	C571.688538,292.746704 576.123657,303.844299 580.486328,314.969208 
	C581.066162,316.447968 581.667053,317.918488 582.258240,319.392822 
	C581.699402,319.857605 581.140564,320.322418 580.581726,320.787201 
	C573.111938,313.005219 565.642090,305.223206 558.172241,297.441223 
	C566.282654,317.010986 578.671936,333.691956 592.005737,349.744232 
	C592.497925,349.542297 592.990112,349.340332 593.482300,349.138397 
	C591.620056,341.941956 589.757812,334.745514 587.895569,327.549103 
	C588.167358,327.413391 588.439209,327.277710 588.710999,327.141998 
	C590.860291,330.704803 593.081055,334.226837 595.143494,337.839233 
	C598.932495,344.475861 602.666321,351.144775 606.351257,357.839813 
	C609.454285,363.477661 614.120911,366.032867 620.581177,366.209717 
	C627.207703,366.391174 633.860229,366.926880 640.420471,367.870087 
	C647.512573,368.889709 650.758240,374.263763 653.817505,381.214478 
	C651.802368,380.647644 650.822571,380.261627 649.807312,380.104187 
	C642.636841,378.992340 635.484375,377.328369 628.276245,377.024597 
	C621.726196,376.748535 615.804932,375.529175 610.426819,371.804626 
	C603.046143,366.693085 595.657471,361.592926 587.764893,356.148560 
	C586.894226,355.685303 586.531067,355.561432 586.167847,355.437531 
	C586.375122,356.023590 586.582397,356.609650 586.789673,357.195709 
	C592.116211,365.932739 597.337585,374.737671 602.886475,383.331146 
	C603.688538,384.573273 606.327637,385.727570 607.667236,385.345764 
	C616.314026,382.881409 623.753418,384.005280 630.145203,391.284088 
	C629.486450,388.004364 628.827698,384.724640 628.168945,381.444916 
	C628.508423,381.110626 628.847961,380.776367 629.187500,380.442078 
	C633.428162,385.336334 637.668823,390.230621 641.909424,395.124908 
	C642.444092,394.782135 642.978821,394.439331 643.513489,394.096558 
	C642.658020,390.321167 641.802551,386.545776 640.967285,382.391785 
	C640.987488,382.013153 640.935608,382.056671 640.935608,382.056671 
	C648.241760,385.637146 652.513977,391.684662 654.338684,399.387085 
	C655.245728,403.215759 651.849670,407.387634 647.023376,407.842590 
	C641.610352,408.352844 636.085266,408.020966 630.632202,407.681671 
	C621.845215,407.135010 613.087708,406.005432 604.296936,405.675354 
	C599.915161,405.510864 597.235718,404.178619 594.473267,400.526703 
	C584.757324,387.682495 575.575073,374.096985 563.989868,363.113861 
	C555.140137,354.724030 549.623169,345.206055 544.918579,334.321655 
	C545.023804,333.978424 544.988159,334.026978 544.988159,334.026978 
M556.579163,295.300476 
	C556.428528,294.902435 556.277893,294.504425 556.127258,294.106384 
	C556.048889,294.449677 555.970459,294.792969 556.579163,295.300476 
M592.978760,350.505096 
	C593.207153,350.582001 593.435608,350.658905 593.664001,350.735809 
	C593.585754,350.498627 593.507507,350.261414 592.978760,350.505096 
M557.000000,296.500000 
	C557.200012,296.633331 557.399963,296.766663 557.599976,296.899994 
	C557.566650,296.600006 557.533325,296.299988 557.000000,296.500000 
z"/>
<path fill="#1953A5" opacity="1.000000" stroke="none" 
	d="
M600.233093,533.569336 
	C598.320068,533.472900 596.869751,533.376648 595.343384,533.275330 
	C595.343384,503.107483 595.343384,473.342712 595.343384,442.996826 
	C600.128723,442.996826 604.759399,442.738495 609.328857,443.153778 
	C610.705383,443.278900 612.216919,445.069550 613.149780,446.447205 
	C625.276123,464.355865 637.307617,482.328674 649.369141,500.281250 
	C650.280090,501.637146 651.237122,502.962097 652.736816,505.108978 
	C652.736816,484.041626 652.736816,463.868774 652.736816,443.342957 
	C658.391907,443.342957 663.630188,443.342957 669.222778,443.342957 
	C669.222778,473.116913 669.222778,502.993042 669.222778,533.545898 
	C664.525391,533.545898 659.901672,533.810303 655.341919,533.386475 
	C653.954529,533.257629 652.439026,531.437012 651.497559,530.043091 
	C638.559937,510.887878 625.712463,491.671722 612.125366,471.399994 
	C612.125366,492.652740 612.125366,512.776184 612.125366,533.569458 
	C607.920044,533.569458 604.307922,533.569458 600.233093,533.569336 
z"/>
<path fill="#1651A4" opacity="1.000000" stroke="none" 
	d="
M528.458008,441.296875 
	C548.022095,439.952423 564.542664,445.273132 575.071289,462.087463 
	C585.558411,478.835632 585.746094,496.750793 575.580994,513.673218 
	C565.513550,530.433228 549.433411,536.540344 530.356445,535.190430 
	C511.669556,533.868225 497.385559,525.224670 490.332916,507.648285 
	C483.310242,490.146667 484.980255,472.938080 497.020844,457.728668 
	C504.853546,447.834564 515.642029,442.965393 528.458008,441.296875 
M515.447510,514.140381 
	C537.520569,528.841431 563.114624,516.794128 565.755554,490.459991 
	C567.704712,471.023804 550.774963,454.038788 531.885620,456.371765 
	C518.390625,458.038574 508.724121,464.718567 504.947937,478.017609 
	C501.066101,491.688599 503.607361,504.024750 515.447510,514.140381 
z"/>
<path fill="#1752A4" opacity="1.000000" stroke="none" 
	d="
M371.973938,458.210205 
	C378.512299,476.392822 373.314636,489.785980 356.020630,499.134766 
	C361.890503,510.340881 367.768158,521.561890 374.048615,533.551941 
	C368.466339,533.551941 363.687073,533.791748 358.960022,533.400391 
	C357.606537,533.288391 355.961914,531.592102 355.204926,530.209351 
	C350.500061,521.615417 345.900909,512.958496 341.512024,504.199615 
	C340.125305,501.432098 338.452393,500.308289 335.349792,500.497009 
	C331.076935,500.756927 326.776428,500.562134 322.134094,500.562134 
	C322.134094,511.599579 322.134094,522.208801 322.134094,533.187500 
	C316.412933,533.187500 311.045807,533.187500 305.411011,533.187500 
	C305.411011,503.291931 305.411011,473.558075 305.411011,443.741486 
	C305.565002,443.601501 305.807098,443.190491 306.043793,443.193573 
	C321.495667,443.395172 336.977112,443.130371 352.386902,444.056519 
	C361.134644,444.582275 367.852112,449.723145 371.973938,458.210205 
M346.560730,457.469849 
	C338.496857,457.469849 330.433014,457.469849 322.006897,457.469849 
	C322.006897,462.208008 322.006897,467.000702 322.006897,471.793396 
	C322.006897,476.709045 322.006897,481.624664 322.006897,487.178925 
	C330.317871,486.784882 337.962463,486.818298 345.503723,485.951904 
	C352.844360,485.108551 357.275726,479.970123 357.818176,473.059357 
	C358.433838,465.216095 355.062103,460.278534 346.560730,457.469849 
z"/>
<path fill="#1953A5" opacity="1.000000" stroke="none" 
	d="
M187.738770,442.987610 
	C191.957138,442.397064 191.585159,444.939484 191.582016,447.328583 
	C191.558762,464.990784 191.569504,482.652985 191.569534,500.315216 
	C191.569550,511.127380 191.569550,521.939575 191.569550,533.158875 
	C186.028610,533.158875 180.809265,533.158875 175.178223,533.158875 
	C175.178223,520.416626 175.178223,507.657715 175.178223,494.540649 
	C160.727173,494.540649 146.675079,494.540649 132.197235,494.540649 
	C132.197235,507.301910 132.197235,520.062195 132.197235,533.193481 
	C126.410133,533.193481 121.038208,533.193481 115.403259,533.193481 
	C115.403259,503.267883 115.403259,473.510620 115.403259,443.370026 
	C120.745506,443.370026 126.117310,443.370026 132.020355,443.370026 
	C132.020355,455.590820 132.020355,467.828461 132.020355,480.241943 
	C146.493149,480.241943 160.445251,480.241943 174.910034,480.241943 
	C174.910034,467.919403 174.910034,455.676361 174.910034,442.987488 
	C179.361771,442.987488 183.316559,442.987488 187.738770,442.987610 
z"/>
<path fill="#1651A4" opacity="1.000000" stroke="none" 
	d="
M533.055786,318.942505 
	C529.300476,317.296814 525.379272,315.947052 521.820435,313.951050 
	C510.230438,307.450867 498.772888,300.714539 486.469238,294.560974 
	C490.184692,298.914825 493.900177,303.268677 498.318207,308.445801 
	C480.824310,302.141785 466.457458,292.246765 452.139740,282.007904 
	C446.789215,287.827576 441.490570,293.590790 436.191956,299.353973 
	C435.815521,299.137512 435.439056,298.921051 435.062622,298.704620 
	C435.062622,282.345673 435.062622,265.986725 435.062622,249.791412 
	C436.241089,251.391296 437.886780,253.625504 440.291565,256.890259 
	C443.202301,242.771637 445.905212,229.661011 448.515686,216.998718 
	C453.534180,228.732788 458.781677,241.002289 464.029175,253.271774 
	C464.512817,253.162384 464.996460,253.052979 465.480103,252.943588 
	C464.760620,243.509842 464.041138,234.076096 463.321655,224.642365 
	C474.590027,245.528076 486.238434,265.505188 502.985138,283.618195 
	C502.985138,278.414307 502.985138,274.449677 502.985138,270.768707 
	C512.977966,286.639801 522.953369,302.483337 532.971191,318.654694 
	C533.013611,318.982513 533.055786,318.942505 533.055786,318.942505 
M465.444427,254.747971 
	C465.534302,254.656311 465.687195,254.570450 465.696350,254.471344 
	C465.705505,254.372238 465.570923,254.259888 465.499329,254.153336 
	C465.409393,254.244965 465.319489,254.336594 465.444427,254.747971 
z"/>
<path fill="#1752A4" opacity="1.000000" stroke="none" 
	d="
M268.697998,473.219299 
	C276.677948,493.283203 284.506378,512.992371 292.669098,533.543152 
	C287.139496,533.543152 282.368561,533.745483 277.638123,533.397461 
	C276.489594,533.312988 275.044617,531.606079 274.474823,530.318237 
	C272.391602,525.609924 270.509613,520.803040 268.778748,515.952393 
	C267.918304,513.540894 266.596497,512.751831 264.034393,512.788147 
	C253.544769,512.936707 243.049194,512.737305 232.563095,512.980469 
	C231.100739,513.014465 229.001709,514.479919 228.362350,515.833130 
	C226.238968,520.327271 224.477982,525.016602 222.912491,529.741821 
	C221.901443,532.793579 220.203079,533.838013 217.049942,533.626221 
	C213.084991,533.359802 209.088547,533.562012 204.515717,533.562012 
	C205.130264,531.636963 205.519516,530.092773 206.106323,528.627747 
	C216.971313,501.501465 227.920715,474.408691 238.664047,447.234406 
	C239.961334,443.952972 241.553345,442.828308 245.099442,442.895935 
	C256.617310,443.115570 256.608673,442.960815 260.948608,453.906036 
	C263.458008,460.234772 266.012329,466.545654 268.697998,473.219299 
M253.708542,474.818634 
	C252.046402,470.615265 250.384262,466.411896 248.372726,461.324951 
	C243.428909,474.366608 238.836182,486.482086 234.200851,498.709930 
	C243.937088,498.709930 252.994537,498.709930 262.654999,498.709930 
	C259.637543,490.695099 256.788544,483.127777 253.708542,474.818634 
z"/>
<path fill="#1752A4" opacity="1.000000" stroke="none" 
	d="
M76.582077,441.231079 
	C83.843460,443.306458 90.687508,445.205231 97.441193,447.384064 
	C100.611626,448.406891 102.017761,450.719635 101.639404,454.311249 
	C101.279884,457.724121 101.562035,461.204559 101.562035,465.798309 
	C93.052612,459.320557 84.077644,457.056946 74.557907,456.262085 
	C60.526997,455.090576 47.525242,461.614410 41.941433,472.928802 
	C36.058037,484.850189 37.978401,501.128082 46.594734,510.345642 
	C56.326752,520.756836 68.933678,521.671265 81.718636,519.372986 
	C88.854012,518.090393 95.577873,514.518555 102.837685,511.849396 
	C102.837685,515.557312 102.969490,519.966858 102.744469,524.358093 
	C102.688614,525.447937 101.715149,526.817688 100.761879,527.485901 
	C84.408569,538.948608 45.842091,540.662231 30.093992,516.651917 
	C19.125799,499.929199 18.592403,481.952576 27.464499,464.464661 
	C36.321754,447.006012 52.429508,441.107971 71.138466,441.001129 
	C72.801170,440.991608 74.464607,441.110168 76.582077,441.231079 
z"/>
<path fill="#1651A4" opacity="1.000000" stroke="none" 
	d="
M700.959839,468.476013 
	C703.701172,471.632416 705.951660,475.183258 709.178894,476.969788 
	C716.281738,480.901764 724.030640,483.651154 731.231384,487.425842 
	C739.124390,491.563507 744.735474,497.680725 745.163635,507.247925 
	C745.869141,523.013367 737.935486,532.391235 721.317932,534.780701 
	C709.647095,536.458740 698.099060,535.322876 686.771667,531.960022 
	C683.561035,531.006836 681.546021,529.609375 682.069397,525.701294 
	C682.479675,522.637817 682.151672,519.475342 682.151672,517.054321 
	C691.012085,518.716125 699.537292,520.777893 708.184753,521.734558 
	C712.283752,522.187988 716.937805,521.292175 720.776917,519.672363 
	C729.037903,516.186768 729.839111,505.823761 722.378357,500.779877 
	C718.842224,498.389282 714.693115,496.900208 710.806213,495.034912 
	C706.019775,492.737854 701.015381,490.816254 696.462036,488.127960 
	C685.784180,481.823822 681.347351,472.676178 683.231445,461.944275 
	C684.965515,452.066681 693.110352,444.380524 704.527588,442.099792 
	C715.377991,439.932312 726.015320,440.981110 736.531067,444.347748 
	C739.937073,445.438202 741.327576,447.178040 740.912659,450.777313 
	C740.590942,453.568634 740.848389,456.426727 740.848389,459.590393 
	C735.974182,458.179993 731.380493,456.233795 726.617554,455.636353 
	C721.251343,454.963257 715.609253,454.785522 710.310547,455.694489 
	C703.144470,456.923767 700.845886,460.657684 700.959839,468.476013 
z"/>
<path fill="#1852A4" opacity="1.000000" stroke="none" 
	d="
M280.940765,142.953995 
	C300.495758,135.192734 320.452240,133.616669 340.708771,136.108810 
	C360.550873,138.549973 380.302612,141.521530 399.982483,134.635269 
	C400.324554,135.056976 400.666656,135.478668 401.008728,135.900375 
	C395.166840,146.213974 389.324951,156.527588 382.997375,167.698669 
	C389.810394,169.168762 396.675323,170.650055 404.437378,172.324921 
	C389.822723,178.162186 375.699066,178.595261 360.167816,176.066681 
	C365.225128,169.400604 369.766571,163.414444 373.892090,157.976578 
	C363.515198,156.961288 352.678589,156.232513 341.948517,154.738327 
	C334.396729,153.686722 327.041656,151.281937 319.507324,150.032852 
	C304.579773,147.558090 290.023315,150.980484 275.466187,153.575668 
	C268.464966,154.823807 261.557678,156.598999 254.607864,158.135513 
	C254.405731,157.697784 254.203583,157.260056 254.001450,156.822327 
	C262.857544,152.234055 271.713623,147.645782 280.940765,142.953995 
z"/>
<path fill="#1A54A5" opacity="1.000000" stroke="none" 
	d="
M402.643799,443.096802 
	C403.356598,444.935059 403.821350,446.685028 403.825317,448.436066 
	C403.875031,470.267792 403.857910,492.099640 403.857910,513.931458 
	C403.857910,515.721252 403.857880,517.511108 403.857880,519.752808 
	C418.428070,519.752808 432.514221,519.752808 446.887329,519.752808 
	C446.887329,524.453796 446.887329,528.705750 446.887329,533.267700 
	C427.083008,533.267700 407.348389,533.267700 387.377747,533.267700 
	C387.377747,503.230499 387.377747,473.465820 387.377747,443.009064 
	C392.336456,443.009064 397.259033,443.009064 402.643799,443.096802 
z"/>
<path fill="#124EA2" opacity="1.000000" stroke="none" 
	d="
M473.998627,464.000122 
	C473.998627,487.440765 473.998627,510.381378 473.998627,533.660034 
	C468.412537,533.660034 463.024200,533.660034 457.314758,533.660034 
	C457.314758,503.722595 457.314758,473.701447 457.314758,443.340332 
	C462.585175,443.340332 467.975922,443.340332 473.998627,443.340332 
	C473.998627,449.993530 473.998627,456.746826 473.998627,464.000122 
z"/>
<path fill="#1A54A5" opacity="1.000000" stroke="none" 
	d="
M418.448761,150.475784 
	C420.467407,149.884232 422.486023,149.292664 425.377197,148.445419 
	C418.606232,163.733276 429.185211,174.615143 433.895386,186.964172 
	C433.895386,183.599716 433.895386,180.235275 433.895386,176.870834 
	C442.032990,192.747452 453.681305,205.731445 465.850830,218.728943 
	C465.820892,219.164627 465.581299,219.386612 465.581299,219.386612 
	C457.352509,213.374664 449.123718,207.362732 440.830475,201.303711 
	C441.506226,203.352600 442.316986,205.810883 443.233551,208.589920 
	C431.541779,201.232147 416.522339,175.972275 413.627258,159.041550 
	C411.462891,159.836884 409.385437,160.922516 407.183990,161.318100 
	C405.007141,161.709274 402.705078,161.403580 399.762970,161.403580 
	C400.490692,159.843369 400.669250,159.044067 401.143768,158.505493 
	C408.465363,150.195480 414.190308,141.023193 417.765350,130.424576 
	C420.642365,121.895569 427.291168,116.232597 434.621185,111.192413 
	C428.628021,123.663940 427.750549,138.311066 417.625366,149.568207 
	C417.284729,150.256607 417.293610,150.498932 417.302490,150.741241 
	C417.684570,150.652756 418.066650,150.564270 418.448761,150.475784 
M440.947418,199.699722 
	C440.491821,199.601547 440.036255,199.503357 439.580658,199.405151 
	C439.919922,199.716385 440.259186,200.027618 440.947418,199.699722 
z"/>
<path fill="#1A54A5" opacity="1.000000" stroke="none" 
	d="
M461.545898,35.302128 
	C472.047302,32.546410 481.957611,34.566959 491.993286,36.541424 
	C477.306580,38.655586 467.219879,47.175964 459.151154,58.945553 
	C454.865082,65.197479 449.855988,70.953728 444.575470,77.697182 
	C449.054016,77.025909 452.739990,76.473427 456.425964,75.920944 
	C440.383881,88.372475 430.711700,106.218338 417.351318,120.825142 
	C422.866699,107.782906 428.382111,94.740669 434.116699,81.180069 
	C429.134186,81.180069 424.442200,81.180069 419.750214,81.180069 
	C419.555389,80.811562 419.360535,80.443054 419.165680,80.074554 
	C437.119568,73.615173 449.278595,61.065807 458.078979,43.949554 
	C453.679504,44.377464 449.682434,44.766239 445.685333,45.155010 
	C445.473969,44.746410 445.262573,44.337811 445.051178,43.929211 
	C450.421753,41.101391 455.792328,38.273575 461.545898,35.302128 
z"/>
<path fill="#1953A5" opacity="1.000000" stroke="none" 
	d="
M481.624207,90.743042 
	C485.591278,88.142372 489.558380,85.541733 493.856079,83.085663 
	C494.186646,83.230232 494.177429,83.179726 494.177429,83.179726 
	C482.428589,97.348061 477.322479,114.269257 474.021729,131.926025 
	C473.291992,135.829590 472.741272,139.766647 471.891205,145.031967 
	C464.557526,129.638580 461.238495,115.007370 465.314056,97.887558 
	C460.989349,101.105316 457.753876,103.512657 454.517365,105.920769 
	C454.329559,93.616135 473.708618,73.475639 489.596130,68.574211 
	C486.827393,74.849060 483.737549,81.851753 480.423584,89.467461 
	C480.164490,90.638977 480.129517,91.197479 480.094543,91.755981 
	C480.365326,91.963043 480.636078,92.170105 480.906860,92.377159 
	C481.145996,91.832466 481.385132,91.287766 481.624207,90.743042 
z"/>
<path fill="#1B55A6" opacity="1.000000" stroke="none" 
	d="
M583.494690,55.512978 
	C567.159973,46.656666 555.555664,43.222023 544.785828,44.137085 
	C545.633301,47.648918 546.474915,51.136578 547.561707,55.639973 
	C527.500305,36.779987 502.662842,34.415180 478.489899,30.659332 
	C490.141510,25.902113 519.363159,26.609095 541.531677,32.506447 
	C540.696533,29.192333 539.974121,26.325512 538.881042,21.987722 
	C556.115051,30.703415 570.487244,41.776237 583.830200,54.743118 
	C583.782715,55.208221 583.494690,55.512978 583.494690,55.512978 
z"/>
<path fill="#1953A5" opacity="1.000000" stroke="none" 
	d="
M536.922485,239.133118 
	C528.664246,234.838608 520.737183,230.736328 512.953186,226.378708 
	C508.107178,223.665833 503.477386,220.566742 497.617676,216.939758 
	C497.537964,224.084717 502.488739,226.706146 504.934753,230.849564 
	C483.449371,228.465027 465.927368,215.020966 463.307037,198.727142 
	C469.849243,203.157425 476.154083,207.426987 483.417145,212.345413 
	C483.307983,209.898972 483.212585,208.963623 483.233429,208.030884 
	C483.360962,202.321365 486.716919,199.357498 492.031921,201.440094 
	C496.709534,203.272964 501.153351,206.178421 505.074951,209.377029 
	C517.508057,219.517914 529.648560,230.017654 541.383545,239.940155 
	C540.822815,239.840576 539.068542,239.529022 536.922485,239.133118 
z"/>
<path fill="#1B55A6" opacity="1.000000" stroke="none" 
	d="
M510.937469,188.068161 
	C493.386322,173.930664 482.912354,152.546768 484.437500,132.492538 
	C486.817413,137.826553 488.478790,142.309875 490.760895,146.451126 
	C493.041168,150.589050 495.942657,154.384644 499.150574,159.198853 
	C500.247681,155.339371 500.983551,152.750610 501.719452,150.161850 
	C502.129028,149.925552 502.538635,149.689270 502.948212,149.452988 
	C503.004547,149.918381 502.971954,150.416672 503.130188,150.844360 
	C507.406677,162.404877 514.980225,171.499313 524.244995,179.406937 
	C531.036438,185.203583 535.162720,192.850494 538.787415,200.603989 
	C528.503723,192.582367 518.247253,184.581970 507.990784,176.581589 
	C507.572601,176.962997 507.154419,177.344406 506.736237,177.725830 
	C508.232697,180.777573 509.729156,183.829315 511.196960,187.349518 
	C511.168365,187.817993 510.937469,188.068161 510.937469,188.068161 
z"/>
<path fill="#1A54A5" opacity="1.000000" stroke="none" 
	d="
M526.113953,108.681213 
	C523.657654,121.282700 521.095642,133.564651 518.722229,144.942200 
	C508.527954,134.957245 503.941559,103.527756 511.341675,87.104202 
	C515.556335,90.660683 518.081421,94.845238 517.973450,100.712112 
	C517.898499,104.782158 518.994446,108.873764 519.614258,113.290222 
	C522.098206,111.375580 524.053223,109.868637 526.113953,108.681213 
z"/>
<path fill="#1B55A6" opacity="1.000000" stroke="none" 
	d="
M458.900818,179.098846 
	C454.666443,174.025711 450.683228,169.203720 446.430298,164.055237 
	C445.784454,166.107971 445.212463,167.925949 444.634216,169.763840 
	C438.597595,160.354691 439.791565,145.027313 448.105194,131.298172 
	C451.746307,154.446350 461.729279,173.877594 476.453583,191.028900 
	C475.978424,191.506134 475.503265,191.983368 475.028107,192.460602 
	C469.736084,188.090408 464.444061,183.720200 458.900818,179.098846 
z"/>
<path fill="#1E57A7" opacity="1.000000" stroke="none" 
	d="
M596.762451,184.819916 
	C593.351746,196.591339 588.182373,207.010788 580.725098,216.511719 
	C582.335388,201.943710 583.907715,187.718979 585.437256,173.881927 
	C586.147766,175.071716 587.354736,177.092911 589.338989,180.415634 
	C590.069336,175.017395 590.632324,170.856094 591.194336,166.700027 
	C597.426941,166.068466 600.043030,167.734772 601.691406,173.385513 
	C602.781860,177.123672 603.877747,180.860275 604.307861,184.974304 
	C602.325867,182.833344 600.343811,180.692383 598.109436,178.278793 
	C597.646362,180.570862 597.255676,182.504715 596.762451,184.819916 
z"/>
<path fill="#1B55A6" opacity="1.000000" stroke="none" 
	d="
M571.726013,246.246155 
	C554.630066,241.177383 539.199585,233.043808 525.814941,221.189087 
	C524.721741,220.220840 523.946533,218.893600 522.370605,216.912247 
	C535.330444,221.501053 547.359619,225.760345 559.550537,230.076889 
	C560.802002,227.652817 561.847473,225.627701 562.989685,223.415253 
	C566.063416,230.842392 569.040894,238.037003 571.951782,245.668427 
	C571.885132,246.105209 571.726013,246.246155 571.726013,246.246155 
z"/>
<path fill="#1E57A7" opacity="1.000000" stroke="none" 
	d="
M594.139038,213.137817 
	C593.419067,215.760971 593.072937,218.144775 592.015320,220.154099 
	C587.490051,228.751526 582.755066,237.238571 578.090332,245.777344 
	C572.004272,236.383270 570.203491,225.367889 569.441650,212.485107 
	C572.746887,217.860596 575.355957,222.103897 578.574524,227.338440 
	C583.913269,218.873474 588.808655,211.111374 594.185547,202.585922 
	C594.185547,206.314438 594.185547,209.520294 594.139038,213.137817 
z"/>
<path fill="#1B55A6" opacity="1.000000" stroke="none" 
	d="
M547.782471,185.355194 
	C543.836792,180.674927 539.891113,175.994644 535.746338,171.078278 
	C536.736572,170.173523 537.250061,169.580826 537.875549,169.151062 
	C550.329590,160.593964 554.156128,162.280899 555.995544,177.247528 
	C556.612488,182.266907 556.951172,187.320450 556.574829,192.518967 
	C553.598633,187.564789 550.622437,182.610611 547.646301,177.656418 
	C547.301575,177.831360 546.956848,178.006302 546.612183,178.181244 
	C547.176270,180.362167 547.740417,182.543091 548.032959,185.053207 
	C547.761414,185.382401 547.782471,185.355179 547.782471,185.355194 
z"/>
<path fill="#1E57A7" opacity="1.000000" stroke="none" 
	d="
M441.957336,318.925964 
	C445.405457,308.501526 448.766846,298.462952 452.159485,288.331024 
	C453.997040,289.812469 456.473236,291.808838 460.005707,294.656769 
	C453.867737,305.468903 447.659027,316.405640 441.450317,327.342377 
	C440.885193,327.090210 440.320068,326.838074 439.754913,326.585907 
	C440.460175,324.161224 441.165436,321.736511 441.957336,318.925964 
z"/>
<path fill="#1E57A7" opacity="1.000000" stroke="none" 
	d="
M475.966003,228.042038 
	C480.420807,230.089249 484.902252,232.081985 489.304688,234.236237 
	C490.055420,234.603592 490.803040,235.588074 490.985352,236.412735 
	C493.054657,245.773468 495.013611,255.158585 496.021973,265.033142 
	C489.305328,252.913193 482.588715,240.793259 475.940674,228.333099 
	C476.009277,227.992889 475.966003,228.042038 475.966003,228.042038 
z"/>
<path fill="#1E57A7" opacity="1.000000" stroke="none" 
	d="
M513.664795,58.421379 
	C513.611877,57.377438 513.425049,56.018314 512.973083,55.923534 
	C508.930786,55.075813 504.841736,54.450886 499.920410,53.617046 
	C511.767426,49.814953 522.258484,51.248287 532.376465,56.106331 
	C524.301819,59.127247 516.380493,62.090801 507.200195,65.525383 
	C509.882904,62.572590 511.645477,60.632565 513.664795,58.421379 
z"/>
<path fill="#1450A3" opacity="1.000000" stroke="none" 
	d="
M571.054443,54.944359 
	C570.523804,54.874088 570.131287,54.661430 569.738770,54.448769 
	C570.184753,54.363548 570.630676,54.278332 571.267395,54.350224 
	C571.458130,54.507332 571.192505,54.801968 571.054443,54.944359 
z"/>
<path fill="#1B55A6" opacity="1.000000" stroke="none" 
	d="
M585.045654,55.946514 
	C584.674561,55.931023 584.303406,55.915527 583.713501,55.706505 
	C583.494690,55.512978 583.782715,55.208221 583.934204,55.063248 
	C584.387817,55.101654 584.690002,55.285034 584.999146,55.727905 
	C585.006165,55.987396 585.045654,55.946514 585.045654,55.946514 
z"/>
<path fill="#1B55A6" opacity="1.000000" stroke="none" 
	d="
M584.984131,56.005367 
	C585.203369,56.153568 585.444580,56.283798 585.685791,56.414040 
	C585.465271,56.404137 585.244690,56.394234 585.034912,56.165421 
	C585.045654,55.946514 585.006165,55.987396 584.984131,56.005367 
z"/>
<path fill="#1E57A7" opacity="1.000000" stroke="none" 
	d="
M476.031403,227.968750 
	C475.826050,227.893784 475.593170,227.857758 475.376251,227.778107 
	C475.338409,227.764206 475.367920,227.566757 475.366272,227.454102 
	C475.555267,227.479355 475.744263,227.504608 475.949646,227.785950 
	C475.966003,228.042038 476.009277,227.992889 476.031403,227.968750 
z"/>
<path fill="#1953A5" opacity="1.000000" stroke="none" 
	d="
M494.202698,83.250389 
	C494.218719,83.270546 494.121613,82.840889 494.121613,82.840889 
	C494.121613,82.840889 494.099609,82.928123 494.138519,83.053925 
	C494.177429,83.179726 494.186646,83.230232 494.202698,83.250389 
z"/>
<path fill="#1A54A5" opacity="1.000000" stroke="none" 
	d="
M465.940979,219.053940 
	C466.301666,219.194824 466.542328,219.446381 466.782990,219.697937 
	C466.512329,219.734528 466.241638,219.771103 465.776123,219.597137 
	C465.581299,219.386612 465.820892,219.164627 465.940979,219.053940 
z"/>
<path fill="#1953A5" opacity="1.000000" stroke="none" 
	d="
M544.467651,240.529266 
	C544.510193,240.536118 544.425110,240.522415 544.467651,240.529266 
z"/>
<path fill="#1651A4" opacity="1.000000" stroke="none" 
	d="
M641.013428,381.991394 
	C640.801819,381.825684 640.564209,381.681793 640.326660,381.537903 
	C640.575256,381.563141 640.823853,381.588379 641.004028,381.835144 
	C640.935608,382.056671 640.987488,382.013153 641.013428,381.991394 
z"/>
<path fill="#1B55A6" opacity="1.000000" stroke="none" 
	d="
M571.963623,246.033508 
	C572.254639,246.172745 572.467285,246.383682 572.679932,246.594620 
	C572.442322,246.622360 572.204773,246.650101 571.846558,246.462006 
	C571.726013,246.246155 571.885132,246.105209 571.963623,246.033508 
z"/>
<path fill="#1651A4" opacity="1.000000" stroke="none" 
	d="
M441.083008,336.062653 
	C441.098969,335.852814 441.089264,335.626892 441.079559,335.401001 
	C441.163544,335.528870 441.247528,335.656708 441.168213,335.900391 
	C441.004913,336.016235 441.057343,336.046600 441.083008,336.062653 
z"/>
<path fill="#1651A4" opacity="1.000000" stroke="none" 
	d="
M545.043335,333.955505 
	C544.843384,333.877716 544.623901,333.822784 544.404419,333.767883 
	C544.560303,333.730164 544.716125,333.692413 544.930054,333.840820 
	C544.988159,334.026978 545.023804,333.978424 545.043335,333.955505 
z"/>
<path fill="#1651A4" opacity="1.000000" stroke="none" 
	d="
M532.990845,319.000610 
	C533.202454,319.154480 533.436829,319.290253 533.671143,319.425995 
	C533.443970,319.408203 533.216797,319.390411 533.022705,319.157593 
	C533.055786,318.942505 533.013611,318.982513 532.990845,319.000610 
z"/>
<path fill="#1B55A6" opacity="1.000000" stroke="none" 
	d="
M547.752197,185.405777 
	C547.948303,185.266327 548.153564,185.103500 548.358887,184.940674 
	C548.431885,185.048706 548.504822,185.156738 548.577820,185.264771 
	C548.448730,185.268326 548.319580,185.271866 547.986450,185.315308 
	C547.782471,185.355179 547.761414,185.382401 547.752197,185.405777 
z"/>
<path fill="#1B55A6" opacity="1.000000" stroke="none" 
	d="
M511.284546,187.693634 
	C511.544830,187.923660 511.688934,188.278046 511.833038,188.632416 
	C511.583618,188.625702 511.334167,188.618988 511.011108,188.340210 
	C510.937469,188.068161 511.168365,187.817993 511.284546,187.693634 
z"/>
<path fill="#FBFCFE" opacity="1.000000" stroke="none" 
	d="
M268.958405,252.953705 
	C259.353699,258.841339 249.717453,264.660339 237.270447,267.481964 
	C238.823288,265.635925 239.642746,264.609863 240.515823,263.631653 
	C253.142548,249.484344 265.314056,234.887146 278.617371,221.407028 
	C284.638184,215.306213 292.436096,210.395218 300.276276,206.789368 
	C311.347778,201.697418 323.206055,198.316116 335.109344,194.852997 
	C318.097534,214.171234 303.611542,234.898422 291.250031,257.112854 
	C278.889160,279.326141 268.805817,302.537323 261.628754,326.996368 
	C261.166199,326.903778 260.703613,326.811157 260.241058,326.718567 
	C261.249756,317.937836 262.138519,309.141205 263.300629,300.380829 
	C264.480591,291.485901 265.930237,282.626770 267.288300,273.420410 
	C267.367889,272.869598 267.420929,272.650330 267.473969,272.431030 
	C267.318237,272.627167 267.162506,272.823303 267.006775,273.019409 
	C262.078033,275.832550 257.149292,278.645691 251.725067,281.346619 
	C251.229614,281.234406 250.932373,280.937866 250.932373,280.937866 
	C257.879120,272.564026 265.732147,264.820129 269.655762,253.660065 
	C269.712921,252.803574 269.609070,252.519989 269.505219,252.236420 
	C269.322937,252.475510 269.140656,252.714600 268.958405,252.953705 
z"/>
<path fill="#FBFCFD" opacity="1.000000" stroke="none" 
	d="
M163.264557,310.245972 
	C157.730576,319.117706 152.125763,327.946259 146.679108,336.871307 
	C138.375977,350.476990 136.370438,365.034271 140.429993,380.437042 
	C156.605560,384.582153 161.213638,389.120239 159.921677,400.232239 
	C155.904617,395.751434 152.940292,390.186707 146.323364,389.931610 
	C146.323364,394.560944 146.323364,398.941467 146.323364,403.321991 
	C146.007660,403.402588 145.691956,403.483185 145.376251,403.563782 
	C144.636810,402.082153 143.838135,400.626709 143.168594,399.114136 
	C140.768768,393.692749 136.760300,390.092407 130.852676,389.394592 
	C127.162910,388.958771 125.406097,387.025635 124.945595,383.805359 
	C124.054581,377.574432 122.983162,371.312073 122.839447,365.043213 
	C122.524490,351.304901 122.741890,337.554382 122.741890,322.737091 
	C129.550690,329.443451 136.074936,327.788422 142.062958,323.924683 
	C148.885849,319.522308 155.216858,314.357666 162.277679,309.638947 
	C162.950668,309.917725 163.107620,310.081848 163.264557,310.245972 
z"/>
<path fill="#FAFBFD" opacity="1.000000" stroke="none" 
	d="
M334.082275,379.760376 
	C339.592896,384.156769 340.246368,390.398041 341.933685,396.352417 
	C338.315887,391.953430 334.021454,390.529755 329.102509,392.044250 
	C328.536011,396.450165 328.017029,400.486664 327.417084,405.152893 
	C325.371094,401.319214 324.309662,397.870911 322.057037,395.608826 
	C320.485443,394.030640 317.214294,393.339813 314.821991,393.559052 
	C310.448853,393.959717 306.958344,392.883820 303.984558,389.818115 
	C290.666473,376.088104 277.333557,362.372070 264.114838,348.546936 
	C263.280121,347.673889 262.746521,345.698608 263.128845,344.605438 
	C266.112610,336.073792 269.355103,327.632629 272.517700,319.163544 
	C273.043274,319.295715 273.568848,319.427917 274.094421,319.560089 
	C274.398163,323.964020 274.310242,328.441376 275.117920,332.750916 
	C275.895416,336.899170 276.678253,341.553864 279.071808,344.794617 
	C285.684265,353.747467 293.171417,362.051605 300.247803,370.665558 
	C303.673035,374.835052 307.874390,376.169128 313.323029,376.369537 
	C320.167450,376.621277 326.954834,378.421997 334.082275,379.760376 
z"/>
<path fill="#F7F9FC" opacity="1.000000" stroke="none" 
	d="
M395.356476,201.566559 
	C398.912048,201.016220 402.026154,200.550186 405.140228,200.084167 
	C405.284271,200.340866 405.428314,200.597565 405.572357,200.854279 
	C402.819244,202.254944 400.162994,203.906342 397.296539,205.013596 
	C383.685181,210.271439 369.528198,211.359680 355.076233,210.535049 
	C352.722656,210.400742 349.636292,211.152130 347.977661,212.677963 
	C334.143341,225.404678 320.559387,238.403732 306.916534,251.338135 
	C305.725220,252.467590 304.652893,253.722488 302.544891,254.406860 
	C303.942078,251.394440 305.165375,248.286118 306.764923,245.385284 
	C316.531616,227.672852 330.152405,213.074631 344.604767,199.204483 
	C345.702759,198.150742 348.294678,197.789902 349.873718,198.235519 
	C364.678467,202.413345 379.719116,202.932022 395.356476,201.566559 
z"/>
<path fill="#F7F9FC" opacity="1.000000" stroke="none" 
	d="
M419.236145,385.779633 
	C424.568817,386.023193 425.878845,384.554260 423.279480,379.958588 
	C419.743683,373.707367 415.429016,367.896667 411.130371,361.417755 
	C413.268524,357.110443 416.106842,351.392670 418.617065,346.335785 
	C420.458191,351.536957 422.497101,357.613373 424.763641,363.603699 
	C426.715820,368.763031 430.654694,371.262329 436.114838,372.071930 
	C447.500305,373.760101 453.437408,379.576019 454.514893,389.174011 
	C450.213684,385.969116 445.655853,382.572998 440.144836,378.466644 
	C440.144836,386.120941 440.144836,392.133881 440.144836,397.913239 
	C437.049683,392.673767 433.952698,387.431152 430.283905,381.220642 
	C427.508881,388.116669 425.387573,393.388092 422.864899,399.656982 
	C421.286865,394.530304 420.102722,390.683167 418.999390,386.379852 
	C419.080200,385.923676 419.236145,385.779633 419.236145,385.779633 
z"/>
<path fill="#F7F9FC" opacity="1.000000" stroke="none" 
	d="
M237.060974,281.055939 
	C218.096054,296.754547 197.277069,309.284027 174.136215,317.834473 
	C173.711044,317.991547 173.177048,317.854126 171.651947,317.854126 
	C180.231155,311.373138 188.099533,305.429169 196.369385,299.181885 
	C191.068024,296.756989 184.709778,297.109985 180.702484,291.260529 
	C200.233246,291.331909 218.091370,286.414246 236.265930,280.677917 
	C236.766678,280.763519 237.060974,281.055939 237.060974,281.055939 
z"/>
<path fill="#F7F9FC" opacity="1.000000" stroke="none" 
	d="
M386.065491,247.060120 
	C383.357239,249.713287 380.770905,252.507812 377.905701,254.979034 
	C375.155060,257.351440 372.115356,259.388794 368.552521,262.060974 
	C375.116394,264.286682 381.253235,266.367615 388.308777,268.760071 
	C360.134766,269.431519 340.847198,268.004608 330.298218,260.395325 
	C349.206085,257.889771 367.224701,253.137848 385.294861,246.733124 
	C385.791687,246.801163 386.065491,247.060135 386.065491,247.060120 
z"/>
<path fill="#FEFEFF" opacity="1.000000" stroke="none" 
	d="
M206.937317,269.945190 
	C206.538574,270.338562 205.933929,270.518799 205.329285,270.699036 
	C205.493317,270.362183 205.657349,270.025360 206.053009,269.515564 
	C206.433578,269.472443 206.582504,269.602264 206.937317,269.945190 
z"/>
<path fill="#FBFCFD" opacity="1.000000" stroke="none" 
	d="
M162.580627,309.487823 
	C162.814835,308.897430 163.262115,308.572815 163.709412,308.248199 
	C163.725586,308.799774 163.741776,309.351318 163.511261,310.074432 
	C163.107620,310.081848 162.950668,309.917725 162.580627,309.487823 
z"/>
<path fill="#FEFEFF" opacity="1.000000" stroke="none" 
	d="
M190.756439,225.738220 
	C190.955795,225.670074 191.365753,225.824631 191.588730,226.186096 
	C191.256851,226.248993 191.111923,226.104950 190.756439,225.738220 
z"/>
<path fill="#F7F9FC" opacity="1.000000" stroke="none" 
	d="
M385.659973,246.666412 
	C385.905487,246.428787 386.282684,246.325882 386.659912,246.222977 
	C386.641418,246.456467 386.622894,246.689957 386.334961,246.991791 
	C386.065491,247.060135 385.791687,246.801163 385.659973,246.666412 
z"/>
<path fill="#F7F9FC" opacity="1.000000" stroke="none" 
	d="
M419.002991,385.996521 
	C418.713867,385.906219 418.501984,385.743073 418.290070,385.579926 
	C418.543060,385.513306 418.796021,385.446686 419.142578,385.579834 
	C419.236145,385.779633 419.080200,385.923676 419.002991,385.996521 
z"/>
<path fill="#FBFCFE" opacity="1.000000" stroke="none" 
	d="
M251.363739,281.395935 
	C251.110977,281.616364 250.724075,281.675293 250.337189,281.734222 
	C250.360474,281.513092 250.383759,281.291931 250.669708,281.004333 
	C250.932373,280.937866 251.229614,281.234406 251.363739,281.395935 
z"/>
<path fill="#F7F9FC" opacity="1.000000" stroke="none" 
	d="
M236.634796,280.603394 
	C236.919159,280.375641 237.335403,280.308014 237.751648,280.240387 
	C237.712570,280.469635 237.673492,280.698883 237.347687,280.992035 
	C237.060974,281.055939 236.766678,280.763519 236.634796,280.603394 
z"/>
<path fill="#F2F5FA" opacity="1.000000" stroke="none" 
	d="
M538.844849,72.979378 
	C536.175537,74.476189 533.842285,75.850128 531.509094,77.224068 
	C531.585815,77.813271 531.662476,78.402473 531.739136,78.991684 
	C535.092834,79.771416 538.446533,80.551147 541.800659,81.330978 
	C540.550842,86.829430 538.232361,88.945801 534.239441,88.167610 
	C528.515930,87.052132 521.614197,81.018303 522.372070,77.792603 
	C523.958923,71.038315 529.960571,68.916115 541.565002,71.270294 
	C540.586304,71.921486 539.883606,72.389000 538.844849,72.979378 
z"/>
<path fill="#F2F5FA" opacity="1.000000" stroke="none" 
	d="
M587.410156,88.503983 
	C589.299927,90.258408 590.937805,91.757812 593.234680,93.860550 
	C586.826111,93.860550 581.541748,93.860550 576.071655,93.860550 
	C580.826294,86.125885 583.058777,85.039429 587.410156,88.503983 
z"/>
<path fill="#FEFEFF" opacity="1.000000" stroke="none" 
	d="
M587.014038,356.965698 
	C586.582397,356.609650 586.375122,356.023590 586.167847,355.437531 
	C586.531067,355.561432 586.894226,355.685303 587.448975,356.021729 
	C587.506470,356.401337 587.372437,356.568481 587.014038,356.965698 
z"/>
<path fill="#FEFEFF" opacity="1.000000" stroke="none" 
	d="
M556.235596,295.218384 
	C555.970459,294.792969 556.048889,294.449677 556.127258,294.106384 
	C556.277893,294.504425 556.428528,294.902435 556.235596,295.218384 
z"/>
<path fill="#FEFEFF" opacity="1.000000" stroke="none" 
	d="
M565.996704,274.004425 
	C565.757446,273.853210 565.521423,273.697784 565.285400,273.542358 
	C565.488831,273.517731 565.692322,273.493134 565.947876,273.734009 
	C566.000000,273.999512 565.999939,274.000214 565.996704,274.004425 
z"/>
<path fill="#FEFEFF" opacity="1.000000" stroke="none" 
	d="
M593.203979,350.264648 
	C593.507507,350.261414 593.585754,350.498627 593.664001,350.735809 
	C593.435608,350.658905 593.207153,350.582001 593.203979,350.264648 
z"/>
<path fill="#FEFEFF" opacity="1.000000" stroke="none" 
	d="
M557.250000,296.250000 
	C557.533325,296.299988 557.566650,296.600006 557.599976,296.899994 
	C557.399963,296.766663 557.200012,296.633331 557.250000,296.250000 
z"/>
<path fill="#FDFEFE" opacity="1.000000" stroke="none" 
	d="
M515.153076,513.928223 
	C503.607361,504.024750 501.066101,491.688599 504.947937,478.017609 
	C508.724121,464.718567 518.390625,458.038574 531.885620,456.371765 
	C550.774963,454.038788 567.704712,471.023804 565.755554,490.459991 
	C563.114624,516.794128 537.520569,528.841431 515.153076,513.928223 
z"/>
<path fill="#FDFEFE" opacity="1.000000" stroke="none" 
	d="
M346.957214,457.602509 
	C355.062103,460.278534 358.433838,465.216095 357.818176,473.059357 
	C357.275726,479.970123 352.844360,485.108551 345.503723,485.951904 
	C337.962463,486.818298 330.317871,486.784882 322.006897,487.178925 
	C322.006897,481.624664 322.006897,476.709045 322.006897,471.793396 
	C322.006897,467.000702 322.006897,462.208008 322.006897,457.469849 
	C330.433014,457.469849 338.496857,457.469849 346.957214,457.602509 
z"/>
<path fill="#FEFEFF" opacity="1.000000" stroke="none" 
	d="
M465.336975,254.588104 
	C465.319489,254.336594 465.409393,254.244965 465.499329,254.153336 
	C465.570923,254.259888 465.705505,254.372238 465.696350,254.471344 
	C465.687195,254.570450 465.534302,254.656311 465.336975,254.588104 
z"/>
<path fill="#FBFCFE" opacity="1.000000" stroke="none" 
	d="
M253.824051,475.189545 
	C256.788544,483.127777 259.637543,490.695099 262.654999,498.709930 
	C252.994537,498.709930 243.937088,498.709930 234.200851,498.709930 
	C238.836182,486.482086 243.428909,474.366608 248.372726,461.324951 
	C250.384262,466.411896 252.046402,470.615265 253.824051,475.189545 
z"/>
<path fill="#FEFEFF" opacity="1.000000" stroke="none" 
	d="
M440.772949,200.019287 
	C440.259186,200.027618 439.919922,199.716385 439.580658,199.405151 
	C440.036255,199.503357 440.491821,199.601547 440.772949,200.019287 
z"/>
<path fill="#FEFEFF" opacity="1.000000" stroke="none" 
	d="
M418.281860,150.297668 
	C418.066650,150.564270 417.684570,150.652756 417.302490,150.741241 
	C417.293610,150.498932 417.284729,150.256607 417.523499,149.893616 
	C417.771118,149.772934 418.114929,150.119537 418.281860,150.297668 
z"/>
<path fill="#FEFEFF" opacity="1.000000" stroke="none" 
	d="
M481.371216,90.450516 
	C481.385132,91.287766 481.145996,91.832466 480.906860,92.377159 
	C480.636078,92.170105 480.365326,91.963043 480.094543,91.755981 
	C480.129517,91.197479 480.164490,90.638977 480.386169,89.844910 
	C480.754608,89.792213 480.936371,89.975082 481.371216,90.450516 
z"/>
<path fill="#1651A4" opacity="1.000000" stroke="none" 
	d="
M269.107819,253.105072 
	C269.140656,252.714600 269.322937,252.475510 269.505219,252.236420 
	C269.609070,252.519989 269.712921,252.803574 269.707977,253.298279 
	C269.599182,253.509399 269.257233,253.256424 269.107819,253.105072 
z"/>
<path fill="#1651A4" opacity="1.000000" stroke="none" 
	d="
M266.989563,272.994873 
	C267.162506,272.823303 267.318237,272.627167 267.473969,272.431030 
	C267.420929,272.650330 267.367889,272.869598 267.125671,273.005615 
	C266.936493,272.922333 266.972382,272.970337 266.989563,272.994873 
z"/>
</svg>