<?xml version="1.0" encoding="UTF-8"?>
<svg id="Layer_2" data-name="Layer 2" xmlns="http://www.w3.org/2000/svg" viewBox="0 0 162.04 159.12">
  <defs>
    <style>
      .cls-1 {
        fill: #114ea2;
      }
    </style>
  </defs>
  <path class="cls-1" d="M123.8,34.27s-8.84-4.29-23.92-4.94c-15.08-.65-21.32,1.95-21.71,10.53-.39,8.58,6.76,12.74,15.73,17.29-10.79,15.21-5.85,32.76-2.34,44.72,6.37-4.03,18.33-7.93,25.74-8.19,0,0-3.12,1.56-6.76,5.07,0,0,8.19-.78,15.6-.78s20.02,4.03,22.88,3.9c2.86-.13,7.15-5.72,7.67-6.76,.49-.98-2-4.47-4.45-7.26-.25-.28-.66-.36-.98-.16-2.04,1.3-6.5,1.3-7.57,1.3-1.17,0-4.03,2.21-7.8,2.08-3.1-.11-5.94-4.36-6.85-5.85-.14-.23,.03-.52,.3-.52h18.78c3.51,0,6.89-4.16,7.67-4.94,.56-.56,1.4,2.06,1.82,3.56,.04,.15,.26,.12,.26-.04v-12.62c0-2.31-2.95-3.82-6.31-6.67-.25-.21-.1-.62,.22-.63,8.6-.14,7.84-.39,7.9,5.77,0,.18,.24,.25,.34,.1,2.63-4.16,2.23-7.22,1.36-8.72-.91-1.56-18.72-12.48-22.1-12.48,0,0-.13-4.42-.52-7.8-.39-3.38-18.2-15.86-23.27-15.86,0,0,7.02,4.81,8.32,9.88Zm-34.58,7.02c.39,1.69,7.67,1.82,7.67,1.82,0,0-1.3,4.94-4.29,5.46-2.99,.52-9.62-4.29-10.14-6.11-.52-1.82,1.95-4.81,3.9-6.37s10.92,.39,10.92,.39c0,0-8.45,3.12-8.06,4.81Zm37.14,5.4c1.65,1.38,5,4.63,6.03,5.63,.11,.11,.03,.29-.13,.29l-12.48-.2c-.17,0-.25-.2-.14-.32,.9-.95,3.64-3.83,5.51-5.39,.35-.29,.86-.3,1.21,0Z"/>
  <path class="cls-1" d="M106.16,24.3c-1.18-7.94-2.74-9.31-2.74-9.31,9.88,.18,20.38,2.94,30.18,9.9-5-6.56-27.63-23.12-34-24.89,2.45,3.53,2.74,8.03,2.74,8.03C86.07,.1,56.58,5.98,56.58,5.98c32.14,3.14,45.86,11.86,49.58,18.32Z"/>
  <path class="cls-1" d="M67.94,23.61s5.88,.49,11.56,1.76c0,0-2.94,2.16-6.66,7.45,0,0,8.52-5.78,18.52-7.25-8.52-3.76-15.09-4.61-23.42-1.96Z"/>
  <path class="cls-1" d="M75.99,46.6c-6.16,18.48,.04,31.81,6.43,43.45-1.71-7.42,1.9-21.32,4.64-29.3,0,0-2.74,2.05-4.91,5.59,0,0-2.28-7.42-1.83-14.49,0,0-2.62-2.4-4.34-5.25Z"/>
  <path class="cls-1" d="M64.49,32.02c-13.24,6.22-26.12,15.13-29.01,29.1,6.31-6.58,8.38-6.04,8.38-6.04-3.24,10.45-.45,22.25,4.5,32.43,1.8-14.95,5.68-32.16,16.04-43.96-6.67,2.97-10.99,8.2-10.99,8.2,2.07-9.37,5.59-16.67,11.08-19.73Z"/>
  <path class="cls-1" d="M86.21,112.97c-4.95-4.63-11.99-9.68-16.38-22.1,0,0-1.63,1.53-1.72,6.89-2.77-2.39-7.46-8.13-10.72-19.04-2.77,15.5,9.38,31.57,19.71,40.47,0,0-2.3-3.64-5.07-9.95,0,0,11.58,6.22,23.73,18.46,0,0-4.79-10.28-9.55-14.74Z"/>
  <path class="cls-1" d="M108.16,122.24s0-13.82-3.33-21.21c-5.12-.41-11.38,4.55-11.38,4.55,0,0,4.63,7.31,8.86,10.57,.24,.16-1.3-2.84-2.93-7.96,0,0,3.98,3.33,8.78,14.06Z"/>
  <path class="cls-1" d="M136.61,109.88s1.87,3.09,5.28,6.26c0,0-2.6-7.8-3.41-11.3-.24-.65-3.66-2.52-6.66-2.19,0,0,.33,4.79-1.54,11.13,0,0,.24-2.11-3.82-8.29,2.52,8.37,.33,18.94-2.36,32.67,4.47-4.79,12.35-19.1,12.52-28.28Z"/>
  <path class="cls-1" d="M133.92,127.6c-3.95,9.03-11.01,17.79-11.01,17.79-3.58-6.02-6.02-10.07-6.02-10.07,.47,11.86,3.46,19.22,6.47,23.64,2.32-8.48,4.87-11.35,7.86-16.3,3.09-5.1,3.45-9.22,2.7-15.06Z"/>
  <path class="cls-1" d="M112.37,142.09s-1.13,3.2-2.35,5.27c0,0-13.55-4.23-26.07-9.32,3.86,6.59,20.89,16.56,35.48,21.08-2.16-1.88-5.46-11.48-7.06-17.03Z"/>
  <path class="cls-1" d="M59.49,128.07c-2.54,2.16-.85,6.96-.85,6.96-7.81-3.2-15.62-10.73-15.62-10.73,4.42,12.61,11.29,18.91,22.21,21.93,10.92,3.01,8.09,1.88,8.09,1.88-6.12-6.12-6.68-9.03-4.71-8.94,1.98,.09,7.57,3.67,11.14,6.4,3.58,2.73,13.7,9.04,21.42,9.22-10.16-4.71-22.87-17.03-28.23-21.93-5.36-4.89-10.92-6.96-13.46-4.8Z"/>
  <path class="cls-1" d="M31.07,106.71c.75-4.71,1.6-5.36,1.6-5.36,5.55,9.6,13.74,17.03,22.11,21.36,0,0-10.35-11.2-15.53-23.53-5.18-12.33-5.65-19.2-5.65-20.42-4.61,8.56-7.34,17.32-2.54,27.95Z"/>
  <path class="cls-1" d="M23.49,55.66c3.68-4.62,13.02-15.75,19.22-18.38-6.09,1.47-9.24,2.42-11.97,2,6.51-5.46,14.74-19.88,20.3-23.45,5.57-3.57,10.15-4.91,14.67-5.33-7.14-1.26-15.86-2.73-21.63-.95-5.78,1.79-12.92,7.14-12.92,7.14,8.61-1.26,10.5-1.26,10.5-1.26,0,0-8.3,14.6-15.54,19.22-7.25,4.62-13.02,6.93-13.02,6.93,9.24-.11,11.76,.11,11.76,.11,0,0-3.78,6.83-5.25,11.24-1.47,4.41-6.3,16.7-8.93,18.17,7.04-4.31,9.14-10.82,12.81-15.44Z"/>
  <path class="cls-1" d="M9.84,95.6c.42,11.03,11.74,28.86,21.78,36.92,0,0-2.55-3.68-4.95-10.61,0,0,9.9,12.87,21.64,17.97-6.08-4.95-14.15-15.42-14.15-15.42-5.66-5.94-10.47-17.12-10.47-17.12,0,0,.42,5.09,.28,11.46,0,0-.42-1.98-1.84-5.8-1.41-3.82-4.53-7.78-5.66-13.72-1.13-5.94,1.41-10.61,1.41-10.61,0,0-1.61,1.14-6.84,2.55,0,0,3.94-4.91,5.53-7.69,1.6-2.8,2.87-7.03,4.99-13.67,2.12-6.65,4.95-8.77,4.95-8.77-12.87,8.77-13.75,14.89-15.45,19.41-1.7,4.53-4.86,9.66-11.09,16.73,0,0,4.04,2.89,9.84-1.63Z"/>
</svg>